<svg version="1.1" id="Layer_1" xmlns="http://www.w3.org/2000/svg" xmlns:xlink="http://www.w3.org/1999/xlink" x="0px" y="0px"
	 width="1280px" height="2000px" viewBox="0 0 1280 2000" enable-background="new 0 0 1280 2000" xml:space="preserve">
<g>
	<defs>
		<rect id="SVGID_1_" width="1280" height="2000"/>
	</defs>
	<clipPath id="SVGID_2_">
		<use xlink:href="#SVGID_1_"  overflow="visible"/>
	</clipPath>
	<rect clip-path="url(#SVGID_2_)" fill="#262262" width="1280" height="2000"/>
	<g clip-path="url(#SVGID_2_)">
		<defs>
			<rect id="SVGID_3_" width="1280" height="2000"/>
		</defs>
		<clipPath id="SVGID_4_">
			<use xlink:href="#SVGID_3_"  overflow="visible"/>
		</clipPath>
		<g opacity="0.5" clip-path="url(#SVGID_4_)">
			<g>
				<defs>
					<rect id="SVGID_5_" x="768.663" y="1155.56" width="328.117" height="232.44"/>
				</defs>
				<clipPath id="SVGID_6_">
					<use xlink:href="#SVGID_5_"  overflow="visible"/>
				</clipPath>
				<path clip-path="url(#SVGID_6_)" fill="#4B4BE0" d="M795,1388l301.783-157l-51.456-75.44L768.663,1271.78
					c0,0,12.914,35.223,17.933,55.22C794,1356.5,795,1388,795,1388"/>
			</g>
		</g>
		<g opacity="0.5" clip-path="url(#SVGID_4_)">
			<g>
				<defs>
					<rect id="SVGID_7_" x="805.045" y="1241" width="340.955" height="219.496"/>
				</defs>
				<clipPath id="SVGID_8_">
					<use xlink:href="#SVGID_7_"  overflow="visible"/>
				</clipPath>
				<path clip-path="url(#SVGID_8_)" fill="#4B4BE0" d="M945.929,1460.496L1146,1295l-45-54l-295.955,155
					c0,0,50.216,14.86,75.148,28C917.193,1443.5,945.929,1460.496,945.929,1460.496"/>
			</g>
		</g>
		<g opacity="0.5" clip-path="url(#SVGID_4_)">
			<g>
				<defs>
					<rect id="SVGID_9_" x="964.452" y="1305.444" width="219.858" height="202.448"/>
				</defs>
				<clipPath id="SVGID_10_">
					<use xlink:href="#SVGID_9_"  overflow="visible"/>
				</clipPath>
				
					<rect x="949.1" y="1382.365" transform="matrix(-0.7489 0.6627 -0.6627 -0.7489 2811.1648 1748.1404)" clip-path="url(#SVGID_10_)" fill="#4B4BE0" width="250.565" height="48.608"/>
			</g>
		</g>
		<g opacity="0.5" clip-path="url(#SVGID_4_)">
			<g>
				<defs>
					<rect id="SVGID_11_" x="1005.45" y="1350.444" width="239.3" height="224.414"/>
				</defs>
				<clipPath id="SVGID_12_">
					<use xlink:href="#SVGID_11_"  overflow="visible"/>
				</clipPath>
				
					<rect x="999.819" y="1423.682" transform="matrix(-0.7489 0.6627 -0.6627 -0.7489 2936.9648 1812.4384)" clip-path="url(#SVGID_12_)" fill="#4B4BE0" width="250.565" height="77.938"/>
			</g>
		</g>
		<g opacity="0.5" clip-path="url(#SVGID_4_)">
			<g>
				<defs>
					<rect id="SVGID_13_" x="887.596" y="1500.928" width="154.274" height="152.31"/>
				</defs>
				<clipPath id="SVGID_14_">
					<use xlink:href="#SVGID_13_"  overflow="visible"/>
				</clipPath>
				
					<rect x="895.282" y="1538.113" transform="matrix(0.723 0.6908 -0.6908 0.723 1356.658 -229.6531)" clip-path="url(#SVGID_14_)" fill="#4B4BE0" width="138.902" height="77.939"/>
			</g>
		</g>
		<g opacity="0.5" clip-path="url(#SVGID_4_)">
			<g>
				<defs>
					<rect id="SVGID_15_" x="853.517" y="1565.928" width="127.353" height="124.132"/>
				</defs>
				<clipPath id="SVGID_16_">
					<use xlink:href="#SVGID_15_"  overflow="visible"/>
				</clipPath>
				
					<rect x="847.742" y="1608.51" transform="matrix(0.723 0.6908 -0.6908 0.723 1378.6616 -182.7112)" clip-path="url(#SVGID_16_)" fill="#4B4BE0" width="138.902" height="38.97"/>
			</g>
		</g>
		<g opacity="0.5" clip-path="url(#SVGID_4_)">
			<g>
				<defs>
					<rect id="SVGID_17_" x="816.517" y="1603.928" width="127.353" height="124.132"/>
				</defs>
				<clipPath id="SVGID_18_">
					<use xlink:href="#SVGID_17_"  overflow="visible"/>
				</clipPath>
				
					<rect x="810.742" y="1646.51" transform="matrix(0.723 0.6908 -0.6908 0.723 1394.6648 -146.6267)" clip-path="url(#SVGID_18_)" fill="#4B4BE0" width="138.902" height="38.97"/>
			</g>
		</g>
		<g opacity="0.5" clip-path="url(#SVGID_4_)">
			<g>
				<defs>
					<rect id="SVGID_19_" x="752.998" y="1635.928" width="157.871" height="156.075"/>
				</defs>
				<clipPath id="SVGID_20_">
					<use xlink:href="#SVGID_19_"  overflow="visible"/>
				</clipPath>
				
					<rect x="762.482" y="1672.391" transform="matrix(0.723 0.6908 -0.6908 0.723 1414.4377 -100.0022)" clip-path="url(#SVGID_20_)" fill="#4B4BE0" width="138.902" height="83.149"/>
			</g>
		</g>
		<g opacity="0.5" clip-path="url(#SVGID_4_)">
			<g>
				<defs>
					<rect id="SVGID_21_" x="712.717" y="1698.928" width="129.152" height="126.017"/>
				</defs>
				<clipPath id="SVGID_22_">
					<use xlink:href="#SVGID_21_"  overflow="visible"/>
				</clipPath>
				
					<rect x="707.842" y="1741.149" transform="matrix(0.723 0.6908 -0.6908 0.723 1432.4426 -48.9707)" clip-path="url(#SVGID_22_)" fill="#4B4BE0" width="138.902" height="41.574"/>
			</g>
		</g>
		<g opacity="0.5" clip-path="url(#SVGID_4_)">
			<g>
				<defs>
					<rect id="SVGID_23_" x="789.596" y="1500.975" width="83.404" height="82.415"/>
				</defs>
				<clipPath id="SVGID_24_">
					<use xlink:href="#SVGID_23_"  overflow="visible"/>
				</clipPath>
				
					<rect x="794.306" y="1520.533" transform="matrix(0.723 0.6908 -0.6908 0.723 1295.5853 -147.1428)" clip-path="url(#SVGID_24_)" fill="#4B4BE0" width="73.984" height="43.299"/>
			</g>
		</g>
		<g opacity="0.5" clip-path="url(#SVGID_4_)">
			<g>
				<defs>
					<rect id="SVGID_25_" x="699.517" y="1479.928" width="138.292" height="134.584"/>
				</defs>
				<clipPath id="SVGID_26_">
					<use xlink:href="#SVGID_25_"  overflow="visible"/>
				</clipPath>
				
					<rect x="691.646" y="1527.735" transform="matrix(0.723 0.6908 -0.6908 0.723 1281.7122 -102.4805)" clip-path="url(#SVGID_26_)" fill="#4B4BE0" width="154.033" height="38.969"/>
			</g>
		</g>
		<g opacity="0.5" clip-path="url(#SVGID_4_)">
			<g>
				<defs>
					<rect id="SVGID_27_" x="712.018" y="1590.928" width="85.193" height="85.996"/>
				</defs>
				<clipPath id="SVGID_28_">
					<use xlink:href="#SVGID_27_"  overflow="visible"/>
				</clipPath>
				
					<rect x="730.568" y="1597.433" transform="matrix(0.723 0.6908 -0.6908 0.723 1337.7355 -68.7566)" clip-path="url(#SVGID_28_)" fill="#4B4BE0" width="48.094" height="72.986"/>
			</g>
		</g>
		<g opacity="0.5" clip-path="url(#SVGID_4_)">
			<g>
				<defs>
					<rect id="SVGID_29_" x="569" y="1574.928" width="162.869" height="137.289"/>
				</defs>
				<clipPath id="SVGID_30_">
					<use xlink:href="#SVGID_29_"  overflow="visible"/>
				</clipPath>
				<polygon clip-path="url(#SVGID_30_)" fill="#4B4BE0" points="731.869,1670.884 631.438,1574.929 569,1635.929 692.379,1712.217 
									"/>
			</g>
		</g>
		<g opacity="0.5" clip-path="url(#SVGID_4_)">
			<g>
				<defs>
					<rect id="SVGID_31_" x="634.717" y="1513.423" width="112.912" height="112.199"/>
				</defs>
				<clipPath id="SVGID_32_">
					<use xlink:href="#SVGID_31_"  overflow="visible"/>
				</clipPath>
				
					<rect x="645.839" y="1535.247" transform="matrix(0.723 0.6908 -0.6908 0.723 1275.6597 -42.7731)" clip-path="url(#SVGID_32_)" fill="#4B4BE0" width="90.668" height="68.551"/>
			</g>
		</g>
		<g opacity="0.5" clip-path="url(#SVGID_4_)">
			<g>
				<defs>
					<rect id="SVGID_33_" x="774.596" y="1434.582" width="149.404" height="112.605"/>
				</defs>
				<clipPath id="SVGID_34_">
					<use xlink:href="#SVGID_33_"  overflow="visible"/>
				</clipPath>
				<polygon clip-path="url(#SVGID_34_)" fill="#4B4BE0" points="924,1500.975 789.596,1434.582 774.596,1450.281 876.024,1547.188 
									"/>
			</g>
		</g>
		<g opacity="0.5" clip-path="url(#SVGID_4_)">
			<g>
				<defs>
					<rect id="SVGID_35_" x="732.596" y="1450.39" width="79.186" height="78"/>
				</defs>
				<clipPath id="SVGID_36_">
					<use xlink:href="#SVGID_35_"  overflow="visible"/>
				</clipPath>
				
					<rect x="735.197" y="1470.794" transform="matrix(0.723 0.6908 -0.6908 0.723 1242.7446 -120.9312)" clip-path="url(#SVGID_36_)" fill="#4B4BE0" width="73.982" height="37.193"/>
			</g>
		</g>
		<g opacity="0.5" clip-path="url(#SVGID_4_)">
			<g>
				<defs>
					<rect id="SVGID_37_" x="540.601" y="1284.075" width="212.414" height="95.824"/>
				</defs>
				<clipPath id="SVGID_38_">
					<use xlink:href="#SVGID_37_"  overflow="visible"/>
				</clipPath>
				<polygon clip-path="url(#SVGID_38_)" fill="#4B4BE0" points="731.869,1284.075 540.601,1285.734 541.417,1379.898 
					753.016,1378.063 				"/>
			</g>
		</g>
		<g opacity="0.5" clip-path="url(#SVGID_4_)">
			<g>
				<defs>
					<rect id="SVGID_39_" x="387.58" y="1467.013" width="226.42" height="189.785"/>
				</defs>
				<clipPath id="SVGID_40_">
					<use xlink:href="#SVGID_39_"  overflow="visible"/>
				</clipPath>
				<path clip-path="url(#SVGID_40_)" fill="#4B4BE0" d="M614,1542.183c0,0-51-6.183-85-28.76
					c-36.101-23.972-65.772-46.411-65.772-46.411l-75.648,81.29l124.11,108.496L614,1542.183z"/>
			</g>
		</g>
		<path clip-path="url(#SVGID_4_)" fill="#69D2E7" d="M739.869,1415.075l-191.269,1.659l0.548,63.194
			c0,0,33.852,15.071,62.852,15.071c29,0,72-16.026,93-32.013C726,1447,739.869,1415.075,739.869,1415.075"/>
		<g opacity="0.5" clip-path="url(#SVGID_4_)">
			<g>
				<defs>
					<rect id="SVGID_41_" x="1061" y="1155.56" width="89" height="64.44"/>
				</defs>
				<clipPath id="SVGID_42_">
					<use xlink:href="#SVGID_41_"  overflow="visible"/>
				</clipPath>
				<polygon clip-path="url(#SVGID_42_)" fill="#4B4BE0" points="1061,1155.561 1104,1220 1150,1187.78 				"/>
			</g>
		</g>
		<g opacity="0.5" clip-path="url(#SVGID_4_)">
			<g>
				<defs>
					<rect id="SVGID_43_" x="1112" y="1198" width="87" height="82"/>
				</defs>
				<clipPath id="SVGID_44_">
					<use xlink:href="#SVGID_43_"  overflow="visible"/>
				</clipPath>
				<polygon clip-path="url(#SVGID_44_)" fill="#4B4BE0" points="1112,1234 1155,1198 1199,1234 1146,1280 				"/>
			</g>
		</g>
		<g opacity="0.5" clip-path="url(#SVGID_4_)">
			<g>
				<defs>
					<rect id="SVGID_45_" x="1155.45" y="1251.059" width="82.43" height="80.834"/>
				</defs>
				<clipPath id="SVGID_46_">
					<use xlink:href="#SVGID_45_"  overflow="visible"/>
				</clipPath>
				
					<rect x="1163.141" y="1267.171" transform="matrix(-0.7489 0.6627 -0.6627 -0.7489 2948.6846 1465.6641)" clip-path="url(#SVGID_46_)" fill="#4B4BE0" width="67.047" height="48.609"/>
			</g>
		</g>
		<g opacity="0.5" clip-path="url(#SVGID_4_)">
			<g>
				<defs>
					<rect id="SVGID_47_" x="1199.45" y="1300.594" width="99.92" height="100.752"/>
				</defs>
				<clipPath id="SVGID_48_">
					<use xlink:href="#SVGID_47_"  overflow="visible"/>
				</clipPath>
				
					<rect x="1216.291" y="1313.011" transform="matrix(-0.7489 0.6627 -0.6627 -0.7489 3080.3594 1534.7488)" clip-path="url(#SVGID_48_)" fill="#4B4BE0" width="66.239" height="75.919"/>
			</g>
		</g>
		<g opacity="0.5" clip-path="url(#SVGID_4_)">
			<g>
				<defs>
					<rect id="SVGID_49_" x="537.601" y="1118.076" width="210.028" height="127.924"/>
				</defs>
				<clipPath id="SVGID_50_">
					<use xlink:href="#SVGID_49_"  overflow="visible"/>
				</clipPath>
				<polygon clip-path="url(#SVGID_50_)" fill="#4B4BE0" points="712.717,1162.051 537.6,1118.075 538.417,1246 747.629,1246 				
					"/>
			</g>
		</g>
		<g opacity="0.5" clip-path="url(#SVGID_4_)">
			<g>
				<defs>
					<rect id="SVGID_51_" x="721.601" y="1164" width="116.208" height="93"/>
				</defs>
				<clipPath id="SVGID_52_">
					<use xlink:href="#SVGID_51_"  overflow="visible"/>
				</clipPath>
				<polygon clip-path="url(#SVGID_52_)" fill="#4B4BE0" points="776.517,1170 721.601,1164 763.999,1257 837.809,1227.949 				"/>
			</g>
		</g>
		<path class="path-to-animate" id="second-section" clip-path="url(#SVGID_4_)" fill="none" stroke="#FFFFFF" stroke-width="20" stroke-miterlimit="10" d="M624.7,800.043
			c0,0,0.566,10.229-1.7,26.291C614.788,884.568,506,908,443,966c-26.022,23.957-95,86-95,149c0,14.678-0.998,150.752-0.998,150.752
			L349,1406.669c0,0,116-3.669,129-111.669c9.869-81.983-49.34-160.902-130.34-160.902c-67,0-132.66,54.902-132.66,131.961
			l531.022-1.233c0,0,32.429,85.062,26.98,127.716c-4.635,36.271-32.854,67.386-66.24,89.587C675.293,1503.053,637,1513,600,1511
			c-46.461-2.511-69-30-69-30v-82c0,0,136-0.24,193-0.24s42,0,114,26.24c71.161,25.935,182.359,124.321,210.858,151.32
			L1342,1829.994"/>
	</g>
	<g clip-path="url(#SVGID_2_)">
		<text transform="matrix(1 0 0 1 146.3574 1564.4932)" fill="#FFFFFF" font-family="'Theinhardt-Md'" font-size="36">R</text>
	</g>
	<g clip-path="url(#SVGID_2_)">
		<text transform="matrix(1 0 0 1 171.3774 1564.4932)" fill="#FFFFFF" font-family="'Theinhardt-Md'" font-size="36">I Convention Center </text>
	</g>
	<g clip-path="url(#SVGID_2_)">
		<text transform="matrix(1 0 0 1 146.3574 1624.5049)"><tspan x="0" y="0" fill="#FFFFFF" font-family="'Theinhardt-Md'" font-size="36">Exhibition Ha</tspan><tspan x="208.976" y="0" fill="#FFFFFF" font-family="'Theinhardt-Md'" font-size="36">l</tspan><tspan x="218.119" y="0" fill="#FFFFFF" font-family="'Theinhardt-Md'" font-size="36">l </tspan></text>
	</g>
	<g clip-path="url(#SVGID_2_)">
		<text transform="matrix(1 0 0 1 382.4468 1624.5049)" fill="#FFFFFF" font-family="'Theinhardt-Md'" font-size="36">A</text>
	</g>
	<g clip-path="url(#SVGID_2_)">
		<text transform="matrix(1 0 0 1 146.3574 1684.5176)"><tspan x="0" y="0" fill="#FFFFFF" font-family="'Theinhardt-Md'" font-size="36">One Sabin St</tspan><tspan x="207.104" y="0" fill="#FFFFFF" font-family="'Theinhardt-Md'" font-size="36">r</tspan><tspan x="218.84" y="0" fill="#FFFFFF" font-family="'Theinhardt-Md'" font-size="36">eet</tspan><tspan x="269.24" y="0" fill="#FFFFFF" font-family="'Theinhardt-Md'" font-size="36" letter-spacing="-1">,</tspan><tspan x="275.828" y="0" fill="#FFFFFF" font-family="'Theinhardt-Md'" font-size="36"> </tspan><tspan x="285.007" y="0" fill="#FFFFFF" font-family="'Theinhardt-Md'" font-size="36">Pr</tspan><tspan x="317.659" y="0" fill="#FFFFFF" font-family="'Theinhardt-Md'" font-size="36">ovidence</tspan></text>
	</g>
	<g clip-path="url(#SVGID_2_)">
		<defs>
			<rect id="SVGID_53_" width="1280" height="2000"/>
		</defs>
		<clipPath id="SVGID_54_">
			<use xlink:href="#SVGID_53_"  overflow="visible"/>
		</clipPath>
		<path id="convention-center-marker" class="poi" clip-path="url(#SVGID_54_)" fill="#E21313" d="M718.635,1412.652c0,5.079-3.047,8.931-5.283,13.073
			c-3.452,6.395-13.534,24.607-13.534,24.607s-10.547-19.328-13.075-24.147c-2.286-4.36-5.742-8.221-5.742-13.533
			c0-10.393,8.425-18.817,18.817-18.817S718.635,1402.26,718.635,1412.652"/>
	</g>
	<g clip-path="url(#SVGID_2_)">
		<defs>
			<rect id="SVGID_55_" width="1280" height="2000"/>
		</defs>
		<clipPath id="SVGID_56_">
			<use xlink:href="#SVGID_55_"  overflow="visible"/>
		</clipPath>
	</g>
	<g clip-path="url(#SVGID_2_)">
		<defs>
			<rect id="SVGID_57_" width="1280" height="2000"/>
		</defs>
		<clipPath id="SVGID_58_">
			<use xlink:href="#SVGID_57_"  overflow="visible"/>
		</clipPath>
	</g>
	<g clip-path="url(#SVGID_2_)">
		<defs>
			<rect id="SVGID_59_" width="1280" height="2000"/>
		</defs>
		<clipPath id="SVGID_60_">
			<use xlink:href="#SVGID_59_"  overflow="visible"/>
		</clipPath>
		<g opacity="0.3" clip-path="url(#SVGID_60_)">
			<g>
				<defs>
					<rect id="SVGID_61_" x="464.846" y="55.9" width="494.237" height="229.32"/>
				</defs>
				<clipPath id="SVGID_62_">
					<use xlink:href="#SVGID_61_"  overflow="visible"/>
				</clipPath>
			</g>
		</g>
	</g>
	<g clip-path="url(#SVGID_2_)">
		<defs>
			<rect id="SVGID_63_" width="1280" height="2000"/>
		</defs>
		<clipPath id="SVGID_64_">
			<use xlink:href="#SVGID_63_"  overflow="visible"/>
		</clipPath>
		<g clip-path="url(#SVGID_64_)">
			<text transform="matrix(1 0 0 1 45.2153 128.7051)"><tspan x="0" y="0" fill="#FFFFFF" font-family="'Theinhardt-Md'" font-size="138.1767">R</tspan><tspan x="86.358" y="0" fill="#FFFFFF" font-family="'Theinhardt-Md'" font-size="138.1767">I</tspan><tspan x="122.975" y="0" fill="#FFFFFF" font-family="'Theinhardt-Md'" font-size="138.1767">S</tspan><tspan x="207.538" y="0" fill="#FFFFFF" font-family="'Theinhardt-Md'" font-size="138.1767">D</tspan></text>
		</g>
	</g>
	<g clip-path="url(#SVGID_2_)">
		<text transform="matrix(1 0 0 1 50.1953 420.6816)"><tspan x="0" y="0" fill="#FFFFFF" font-family="'Theinhardt-Md'" font-size="138.1767">G</tspan><tspan x="96.86" y="0" fill="#FFFFFF" font-family="'Theinhardt-Md'" font-size="138.1767">r</tspan><tspan x="145.636" y="0" fill="#FFFFFF" font-family="'Theinhardt-Md'" font-size="138.1767">a</tspan><tspan x="215.967" y="0" fill="#FFFFFF" font-family="'Theinhardt-Md'" font-size="138.1767">d</tspan></text>
	</g>
	<g clip-path="url(#SVGID_2_)">
		<text transform="matrix(1 0 0 1 752.9619 420.6816)"><tspan x="0" y="0" fill="#FFFFFF" font-family="'Theinhardt-Md'" font-size="138.1767">S</tspan><tspan x="85.116" y="0" fill="#FFFFFF" font-family="'Theinhardt-Md'" font-size="138.1767">h</tspan><tspan x="161.526" y="0" fill="#FFFFFF" font-family="'Theinhardt-Md'" font-size="138.1767">o</tspan><tspan x="237.246" y="0" fill="#FFFFFF" font-family="'Theinhardt-Md'" font-size="138.1767">w</tspan></text>
	</g>
	<g clip-path="url(#SVGID_2_)">
		<text transform="matrix(1 0 0 1 754.4824 716.9326)" fill="#FFFFFF" font-family="'Theinhardt-Md'" font-size="138.1767">2</text>
	</g>
	<g clip-path="url(#SVGID_2_)">
		<text transform="matrix(1 0 0 1 837.5264 716.9326)" fill="#FFFFFF" font-family="'Theinhardt-Md'" font-size="138.1767">0</text>
	</g>
	<g clip-path="url(#SVGID_2_)">
		<text transform="matrix(1 0 0 1 910.7598 716.9326)" fill="#FFFFFF" font-family="'Theinhardt-Md'" font-size="138.1767">1</text>
	</g>
	<g clip-path="url(#SVGID_2_)">
		<text transform="matrix(1 0 0 1 979.2949 716.9326)" fill="#FFFFFF" font-family="'Theinhardt-Md'" font-size="138.1767">4</text>
	</g>
	<g clip-path="url(#SVGID_2_)">
		<defs>
			<rect id="SVGID_65_" width="1280" height="2000"/>
		</defs>
		<clipPath id="SVGID_66_">
			<use xlink:href="#SVGID_65_"  overflow="visible"/>
		</clipPath>
		<path class="path-to-animate" id="first-section" clip-path="url(#SVGID_66_)" fill="none" stroke="#FFFFFF" stroke-width="20" stroke-miterlimit="10" d="M56.195,89.467
			h341.971V263H28.903v128.926h328.677V676H1031c238,0,182.22-293.266,182.22-293.266H625v420.272"/>
	</g>
	<g clip-path="url(#SVGID_2_)">
		<text transform="matrix(1 0 0 1 611.0376 168.707)" fill="#FFFFFF" font-family="'Theinhardt-Md'" font-size="18">R</text>
	</g>
	<g clip-path="url(#SVGID_2_)">
		<text transform="matrix(1 0 0 1 623.5479 168.707)" fill="#FFFFFF" font-family="'Theinhardt-Md'" font-size="18">I Convention Center </text>
	</g>
	<g clip-path="url(#SVGID_2_)">
		<text transform="matrix(1 0 0 1 611.0376 190.3071)"><tspan x="0" y="0" fill="#FFFFFF" font-family="'Theinhardt-Md'" font-size="18">Exhibition Ha</tspan><tspan x="104.488" y="0" fill="#FFFFFF" font-family="'Theinhardt-Md'" font-size="18">l</tspan><tspan x="109.059" y="0" fill="#FFFFFF" font-family="'Theinhardt-Md'" font-size="18">l </tspan></text>
	</g>
	<g clip-path="url(#SVGID_2_)">
		<text transform="matrix(1 0 0 1 729.082 190.3071)" fill="#FFFFFF" font-family="'Theinhardt-Md'" font-size="18">A</text>
	</g>
	<g clip-path="url(#SVGID_2_)">
		<text transform="matrix(1 0 0 1 611.0376 211.9072)"><tspan x="0" y="0" fill="#FFFFFF" font-family="'Theinhardt-Md'" font-size="18">One Sabin St</tspan><tspan x="103.552" y="0" fill="#FFFFFF" font-family="'Theinhardt-Md'" font-size="18">r</tspan><tspan x="109.438" y="0" fill="#FFFFFF" font-family="'Theinhardt-Md'" font-size="18">eet</tspan><tspan x="134.638" y="0" fill="#FFFFFF" font-family="'Theinhardt-Md'" font-size="18">,</tspan><tspan x="137.95" y="0" fill="#FFFFFF" font-family="'Theinhardt-Md'" font-size="18"> </tspan><tspan x="142.54" y="0" fill="#FFFFFF" font-family="'Theinhardt-Md'" font-size="18">P</tspan><tspan x="152.98" y="0" fill="#FFFFFF" font-family="'Theinhardt-Md'" font-size="18">r</tspan><tspan x="158.847" y="0" fill="#FFFFFF" font-family="'Theinhardt-Md'" font-size="18">ovidence</tspan></text>
	</g>
	<g clip-path="url(#SVGID_2_)">
		<text transform="matrix(1 0 0 1 611.0376 255.1069)" fill="#FFFFFF" font-family="'Theinhardt-Md'" font-size="18">Open 1</text>
	</g>
	<g clip-path="url(#SVGID_2_)">
		<text transform="matrix(1 0 0 1 668.8535 255.1069)" fill="#FFFFFF" font-family="'Theinhardt-Md'" font-size="18">2</text>
	</g>
	<g clip-path="url(#SVGID_2_)">
		<text transform="matrix(1 0 0 1 681.2734 255.1069)" fill="#FFFFFF" font-family="'Theinhardt-Md'" font-size="18">–</text>
	</g>
	<g clip-path="url(#SVGID_2_)">
		<text transform="matrix(1 0 0 1 694.7373 255.1069)" fill="#FFFFFF" font-family="'Theinhardt-Md'" font-size="18">5pm Daily</text>
	</g>
	<g clip-path="url(#SVGID_2_)">
		<text transform="matrix(1 0 0 1 611.0376 276.707)"><tspan x="0" y="0" fill="#FFFFFF" font-family="'Theinhardt-Md'" font-size="18">M</tspan><tspan x="14.256" y="0" fill="#FFFFFF" font-family="'Theinhardt-Md'" font-size="18">a</tspan><tspan x="23.454" y="0" fill="#FFFFFF" font-family="'Theinhardt-Md'" font-size="18">y 1</tspan></text>
	</g>
	<g clip-path="url(#SVGID_2_)">
		<text transform="matrix(1 0 0 1 657.6035 276.707)" fill="#FFFFFF" font-family="'Theinhardt-Md'" font-size="18">7</text>
	</g>
	<g clip-path="url(#SVGID_2_)">
		<text transform="matrix(1 0 0 1 668.2236 276.707)" fill="#FFFFFF" font-family="'Theinhardt-Md'" font-size="18">–</text>
	</g>
	<g clip-path="url(#SVGID_2_)">
		<text transform="matrix(1 0 0 1 681.3271 276.707)" fill="#FFFFFF" font-family="'Theinhardt-Md'" font-size="18">31</text>
	</g>
	<g clip-path="url(#SVGID_2_)">
		<text transform="matrix(1 0 0 1 611.0371 83.6157)"><tspan x="0" y="0" fill="#FFFFFF" font-family="'Theinhardt-Md'" font-size="24.4176">R</tspan><tspan x="15.456" y="0" fill="#FFFFFF" font-family="'Theinhardt-Md'" font-size="24.4176">HOD</tspan><tspan x="66.83" y="0" fill="#FFFFFF" font-family="'Theinhardt-Md'" font-size="24.4176">E </tspan><tspan x="88.146" y="0" fill="#FFFFFF" font-family="'Theinhardt-Md'" font-size="24.4176">I</tspan><tspan x="94.812" y="0" fill="#FFFFFF" font-family="'Theinhardt-Md'" font-size="24.4176">S</tspan><tspan x="109.951" y="0" fill="#FFFFFF" font-family="'Theinhardt-Md'" font-size="24.4176">L</tspan><tspan x="123.137" y="0" fill="#FFFFFF" font-family="'Theinhardt-Md'" font-size="24.4176">A</tspan><tspan x="138.201" y="0" fill="#FFFFFF" font-family="'Theinhardt-Md'" font-size="24.4176">N</tspan><tspan x="155.099" y="0" fill="#FFFFFF" font-family="'Theinhardt-Md'" font-size="24.4176">D </tspan><tspan x="178.466" y="0" fill="#FFFFFF" font-family="'Theinhardt-Md'" font-size="24.4176">S</tspan><tspan x="193.653" y="0" fill="#FFFFFF" font-family="'Theinhardt-Md'" font-size="24.4176">C</tspan><tspan x="209.769" y="0" fill="#FFFFFF" font-family="'Theinhardt-Md'" font-size="24.4176">H</tspan><tspan x="226.812" y="0" fill="#FFFFFF" font-family="'Theinhardt-Md'" font-size="24.4176">O</tspan><tspan x="244.515" y="0" fill="#FFFFFF" font-family="'Theinhardt-Md'" font-size="24.4176">O</tspan><tspan x="262.192" y="0" fill="#FFFFFF" font-family="'Theinhardt-Md'" font-size="24.4176">L </tspan><tspan x="281.458" y="0" fill="#FFFFFF" font-family="'Theinhardt-Md'" font-size="24.4176">O</tspan><tspan x="299.136" y="0" fill="#FFFFFF" font-family="'Theinhardt-Md'" font-size="24.4176">F </tspan><tspan x="318.816" y="0" fill="#FFFFFF" font-family="'Theinhardt-Md'" font-size="24.4176">D</tspan><tspan x="335.469" y="0" fill="#FFFFFF" font-family="'Theinhardt-Md'" font-size="24.4176">E</tspan><tspan x="350.559" y="0" fill="#FFFFFF" font-family="'Theinhardt-Md'" font-size="24.4176">S</tspan><tspan x="365.746" y="0" fill="#FFFFFF" font-family="'Theinhardt-Md'" font-size="24.4176">I</tspan><tspan x="372.534" y="0" fill="#FFFFFF" font-family="'Theinhardt-Md'" font-size="24.4176">G</tspan><tspan x="389.797" y="0" fill="#FFFFFF" font-family="'Theinhardt-Md'" font-size="24.4176">N</tspan></text>
	</g>
	<g clip-path="url(#SVGID_2_)">
		<text transform="matrix(1 0 0 1 1018.127 83.6157)" fill="#FFFFFF" font-family="'Theinhardt-Md'" font-size="24.4176"> </text>
	</g>
	<g clip-path="url(#SVGID_2_)">
		<text transform="matrix(1 0 0 1 611.0371 111.4521)"><tspan x="0" y="0" fill="#FFFFFF" font-family="'Theinhardt-Md'" font-size="24.4176">G</tspan><tspan x="17.141" y="0" fill="#FFFFFF" font-family="'Theinhardt-Md'" font-size="24.4176">R</tspan><tspan x="33.256" y="0" fill="#FFFFFF" font-family="'Theinhardt-Md'" font-size="24.4176">A</tspan><tspan x="48.224" y="0" fill="#FFFFFF" font-family="'Theinhardt-Md'" font-size="24.4176">D</tspan><tspan x="64.706" y="0" fill="#FFFFFF" font-family="'Theinhardt-Md'" font-size="24.4176">U</tspan><tspan x="80.504" y="0" fill="#FFFFFF" font-family="'Theinhardt-Md'" font-size="24.4176" letter-spacing="-1">A</tspan><tspan x="93.859" y="0" fill="#FFFFFF" font-family="'Theinhardt-Md'" font-size="24.4176">T</tspan><tspan x="106.972" y="0" fill="#FFFFFF" font-family="'Theinhardt-Md'" font-size="24.4176">E </tspan><tspan x="128.044" y="0" fill="#FFFFFF" font-family="'Theinhardt-Md'" font-size="24.4176">T</tspan><tspan x="141.155" y="0" fill="#FFFFFF" font-family="'Theinhardt-Md'" font-size="24.4176">H</tspan><tspan x="158.027" y="0" fill="#FFFFFF" font-family="'Theinhardt-Md'" font-size="24.4176">E</tspan><tspan x="172.996" y="0" fill="#FFFFFF" font-family="'Theinhardt-Md'" font-size="24.4176">S</tspan><tspan x="188.062" y="0" fill="#FFFFFF" font-family="'Theinhardt-Md'" font-size="24.4176">I</tspan><tspan x="194.63" y="0" fill="#FFFFFF" font-family="'Theinhardt-Md'" font-size="24.4176">S</tspan><tspan x="209.891" y="0" fill="#FFFFFF" font-family="'Theinhardt-Md'" font-size="24.4176"> </tspan><tspan x="216.36" y="0" fill="#FFFFFF" font-family="'Theinhardt-Md'" font-size="24.4176">E</tspan><tspan x="231.695" y="0" fill="#FFFFFF" font-family="'Theinhardt-Md'" font-size="24.4176">X</tspan><tspan x="247.176" y="0" fill="#FFFFFF" font-family="'Theinhardt-Md'" font-size="24.4176">H</tspan><tspan x="264.023" y="0" fill="#FFFFFF" font-family="'Theinhardt-Md'" font-size="24.4176">I</tspan><tspan x="270.494" y="0" fill="#FFFFFF" font-family="'Theinhardt-Md'" font-size="24.4176">B</tspan><tspan x="286.243" y="0" fill="#FFFFFF" font-family="'Theinhardt-Md'" font-size="24.4176">I</tspan><tspan x="292.665" y="0" fill="#FFFFFF" font-family="'Theinhardt-Md'" font-size="24.4176">T</tspan><tspan x="305.776" y="0" fill="#FFFFFF" font-family="'Theinhardt-Md'" font-size="24.4176">IO</tspan><tspan x="329.9" y="0" fill="#FFFFFF" font-family="'Theinhardt-Md'" font-size="24.4176">N</tspan><tspan x="346.847" y="0" fill="#FFFFFF" font-family="'Theinhardt-Md'" font-size="24.4176"> </tspan></text>
	</g>
</g>
</svg>
