<?xml version="1.0" encoding="utf-8"?>
<!-- Generator: Adobe Illustrator 14.0.0, SVG Export Plug-In . SVG Version: 6.00 Build 43363)  -->
<!DOCTYPE svg PUBLIC "-//W3C//DTD SVG 1.1//EN" "http://www.w3.org/Graphics/SVG/1.1/DTD/svg11.dtd">
<svg version="1.1" id="Layer_1" xmlns="http://www.w3.org/2000/svg" xmlns:xlink="http://www.w3.org/1999/xlink" x="0px" y="0px"
	 width="145.25px" height="131px" viewBox="0 0 145.25 131" enable-background="new 0 0 145.25 131" xml:space="preserve">
<path id="_x32_-risd-grad-between" fill="none" stroke="#050000" stroke-width="10" stroke-miterlimit="10" d="M145.293,0
	c3.215,0,6.297,0,9.211,0c50.17,0,44.455,65.185,3.248,64.784C97.514,64.198,12.484,46.08-17.041,69.186
	c-22.054,17.258-23.264,51.451-1.284,58c4.748,1.414,9.815,2.5,13.299,2.5s5.317,0,5.317,0"/>
<line fill="none" stroke="#050000" stroke-miterlimit="10" x1="-63.208" y1="0" x2="-63.208" y2="131"/>
<line fill="none" stroke="#050000" stroke-miterlimit="10" x1="-41.542" y1="112.666" x2="-41.542" y2="91.842"/>
<text transform="matrix(1 0 0 1 -95.208 45.3335)" font-family="'MyriadPro-Regular'" font-size="12">131</text>
<line fill="none" stroke="#050000" stroke-miterlimit="10" x1="0" y1="-28.667" x2="145.25" y2="-28.667"/>
<text transform="matrix(1 0 0 1 37.792 -37.6665)" font-family="'MyriadPro-Regular'" font-size="12">145</text>
<g>
	<line fill="none" stroke="#6CF4DA" stroke-miterlimit="10" x1="-39.095" y1="86.443" x2="-17.041" y2="69.186"/>
	<line fill="none" stroke="#6CF4DA" stroke-miterlimit="10" x1="-18.325" y1="127.186" x2="-17.041" y2="69.186"/>
	<path fill="none" stroke="#6CF4DA" stroke-miterlimit="10" d="M-40.305,120.637c0-1,23.264-51.451,23.264-51.451"/>
</g>
<g>
	<line fill="none" stroke="#6CF4DA" stroke-miterlimit="10" x1="97.399" y1="64.186" x2="157.752" y2="64.784"/>
	<line fill="none" stroke="#6CF4DA" stroke-miterlimit="10" x1="12.484" y1="46.08" x2="157.752" y2="64.784"/>
	<line fill="none" stroke="#6CF4DA" stroke-miterlimit="10" x1="157.752" y1="64.784" x2="-17.041" y2="69.186"/>
</g>
<g>
	<line fill="none" stroke="#6CF4DA" stroke-miterlimit="10" x1="-13.577" y1="128.6" x2="-18.325" y2="127.186"/>
	<line fill="none" stroke="#6CF4DA" stroke-miterlimit="10" x1="-8.51" y1="129.686" x2="-18.325" y2="127.186"/>
	<line fill="none" stroke="#6CF4DA" stroke-miterlimit="10" x1="-18.325" y1="127.186" x2="-5.026" y2="129.686"/>
</g>
<g>
	<line fill="none" stroke="#6CF4DA" stroke-miterlimit="10" x1="-1.465" y1="129.686" x2="-5.026" y2="129.686"/>
	<line fill="none" stroke="#6CF4DA" stroke-miterlimit="10" x1="-5.026" y1="129.686" x2="0.291" y2="129.686"/>
</g>
<line fill="none" stroke="#0C75F2" stroke-miterlimit="10" x1="12.484" y1="46.08" x2="12.484" y2="64.784"/>
<line fill="none" stroke="#0C75F2" stroke-miterlimit="10" x1="162.755" y1="64.843" x2="162.755" y2="69.186"/>
<line fill="none" stroke="#0C75F2" stroke-miterlimit="10" x1="157.755" y1="46.186" x2="12.487" y2="46.186"/>
<line fill="none" stroke="#0C75F2" stroke-miterlimit="10" x1="157.755" y1="76.186" x2="-17.041" y2="76.186"/>
<line fill="none" stroke="#0C75F2" stroke-miterlimit="10" x1="157.754" y1="71.843" x2="97.398" y2="71.843"/>
<line fill="none" stroke="#0C75F2" stroke-miterlimit="10" x1="-39.095" y1="68.984" x2="-17.683" y2="68.984"/>
<line fill="none" stroke="#0C75F2" stroke-miterlimit="10" x1="-41.542" y1="86.443" x2="-41.542" y2="68.984"/>
<line fill="none" stroke="#0C75F2" stroke-miterlimit="10" x1="-45.583" y1="69.186" x2="-45.583" y2="120.637"/>
<line fill="none" stroke="#0C75F2" stroke-miterlimit="10" x1="-40.305" y1="64.245" x2="-18.216" y2="64.245"/>
<line fill="none" stroke="#0C75F2" stroke-miterlimit="10" x1="-11.041" y1="69.186" x2="-12.325" y2="127.186"/>
<line fill="none" stroke="#0C75F2" stroke-miterlimit="10" x1="-18.325" y1="136.132" x2="-18.325" y2="137.546"/>
<line fill="none" stroke="#0C75F2" stroke-miterlimit="10" x1="-18.325" y1="135.633" x2="-13.577" y2="135.633"/>
<line fill="none" stroke="#0C75F2" stroke-miterlimit="10" x1="-18.325" y1="139.042" x2="-8.51" y2="139.042"/>
<line fill="none" stroke="#0C75F2" stroke-miterlimit="10" x1="-18.325" y1="141.542" x2="-18.325" y2="139.042"/>
<line fill="none" stroke="#0C75F2" stroke-miterlimit="10" x1="-18.498" y1="145.362" x2="-18.498" y2="142.862"/>
<line fill="none" stroke="#0C75F2" stroke-miterlimit="10" x1="-18.325" y1="142.862" x2="-5.026" y2="142.862"/>
<line fill="none" stroke="#0C75F2" stroke-miterlimit="10" x1="-5.026" y1="136.104" x2="-1.465" y2="136.104"/>
<line fill="none" stroke="#0C75F2" stroke-miterlimit="10" x1="-5.026" y1="138.104" x2="0.291" y2="138.104"/>
<text transform="matrix(1 0 0 1 29.1675 42.2559)" fill="#0C75F2" font-family="'MyriadPro-Regular'" font-size="6">-145</text>
<text transform="matrix(1 0 0 1 -3 51.644)" fill="#0C75F2" font-family="'MyriadPro-Regular'" font-size="6">-18.5</text>
<text transform="matrix(1 0 0 1 167.75 71.8428)" fill="#0C75F2" font-family="'MyriadPro-Regular'" font-size="6">4.3</text>
<text transform="matrix(1 0 0 1 131.168 82.9932)" fill="#0C75F2" font-family="'MyriadPro-Regular'" font-size="6">-60</text>
<text transform="matrix(1 0 0 1 68.1675 88.9932)" fill="#0C75F2" font-family="'MyriadPro-Regular'" font-size="6">-175</text>
<text transform="matrix(1 0 0 1 -44.3052 52.3315)" fill="#0C75F2" font-family="'MyriadPro-Regular'" font-size="6">-22</text>
<text transform="matrix(1 0 0 1 -30.7236 62.2231)" fill="#0C75F2" font-family="'MyriadPro-Regular'" font-size="6">-21.5</text>
<text transform="matrix(1 0 0 1 -60.916 76.5762)" fill="#0C75F2" font-family="'MyriadPro-Regular'" font-size="6">17.35</text>
<text transform="matrix(1 0 0 1 -60.416 104.4102)" fill="#0C75F2" font-family="'MyriadPro-Regular'" font-size="6">51.2</text>
<text transform="matrix(1 0 0 1 -8.5098 106.6602)" fill="#0C75F2" font-family="'MyriadPro-Regular'" font-size="6">58</text>
<text transform="matrix(1 0 0 1 -25.7339 137.1602)" fill="#0C75F2" font-family="'MyriadPro-Regular'" font-size="3">1.5</text>
<text transform="matrix(1 0 0 1 -25.7339 141.251)" fill="#0C75F2" font-family="'MyriadPro-Regular'" font-size="3">2.45</text>
<text transform="matrix(1 0 0 1 -26.2783 145.3623)" fill="#0C75F2" font-family="'MyriadPro-Regular'" font-size="3">2.47</text>
<text transform="matrix(1 0 0 1 -18.8843 134.5469)" fill="#0C75F2" font-family="'MyriadPro-Regular'" font-size="3">4.8</text>
<text transform="matrix(1 0 0 1 -12.3252 138.252)" fill="#0C75F2" font-family="'MyriadPro-Regular'" font-size="3">9.8</text>
<text transform="matrix(1 0 0 1 -11.8535 145.8809)" fill="#0C75F2" font-family="'MyriadPro-Regular'" font-size="3">13.27</text>
<text transform="matrix(1 0 0 1 1.1748 136.627)" fill="#0C75F2" font-family="'MyriadPro-Regular'" font-size="3">3.5</text>
<text transform="matrix(1 0 0 1 0.8311 139.377)" fill="#0C75F2" font-family="'MyriadPro-Regular'" font-size="3">5.3</text>
<g>
	<text transform="matrix(1 0 0 1 167.75 77.7139)" fill="#0C75F2" font-family="'MyriadPro-Regular'" font-size="6">0.032824427</text>
</g>
<g>
	<text transform="matrix(1 0 0 1 131.168 90.4932)" fill="#0C75F2" font-family="'MyriadPro-Regular'" font-size="6">-0.413793103</text>
</g>
<g>
	<text transform="matrix(1 0 0 1 68.168 96.25)" fill="#0C75F2" font-family="'MyriadPro-Regular'" font-size="6">-1.206896552</text>
</g>
<g>
	<text transform="matrix(1 0 0 1 29.1675 35.2896)" fill="#0C75F2" font-family="'MyriadPro-Regular'" font-size="6">-1</text>
</g>
<g>
	<text transform="matrix(1 0 0 1 -7.0352 45.7559)" fill="#0C75F2" font-family="'MyriadPro-Regular'" font-size="6">-0.128</text>
</g>
<g>
	<text transform="matrix(1 0 0 1 -49.583 47.3096)" fill="#0C75F2" font-family="'MyriadPro-Regular'" font-size="6">-0.15</text>
</g>
<g>
	<text transform="matrix(1 0 0 1 -30.7236 57.2012)" fill="#0C75F2" font-family="'MyriadPro-Regular'" font-size="6">-0.148</text>
</g>
<g>
	<text transform="matrix(1 0 0 1 -79.875 69.1855)" fill="#0C75F2" font-family="'MyriadPro-Regular'" font-size="6">0.132442748</text>
</g>
<g>
	<text transform="matrix(1 0 0 1 -81.208 96.6172)" fill="#0C75F2" font-family="'MyriadPro-Regular'" font-size="6">0.390839695</text>
</g>
<g>
	<text transform="matrix(1 0 0 1 -8.4648 101.6387)" fill="#0C75F2" font-family="'MyriadPro-Regular'" font-size="6">0.442748092</text>
</g>
<g>
	<text transform="matrix(1 0 0 1 -47.375 136.5)" fill="#0C75F2" font-family="'MyriadPro-Regular'" font-size="3">0.011450382</text>
</g>
<g>
	<text transform="matrix(1 0 0 1 -46.375 141.5)" fill="#0C75F2" font-family="'MyriadPro-Regular'" font-size="3">0.01870229</text>
</g>
<g>
	<text transform="matrix(1 0 0 1 -47.8535 145)" fill="#0C75F2" font-family="'MyriadPro-Regular'" font-size="3">0.018854962</text>
</g>
<g>
	<text transform="matrix(1 0 0 1 -19.375 154.5)" fill="#0C75F2" font-family="'MyriadPro-Regular'" font-size="3">0.033103448</text>
</g>
<g>
	<text transform="matrix(1 0 0 1 -18.375 159.5)" fill="#0C75F2" font-family="'MyriadPro-Regular'" font-size="3">0.067586207</text>
</g>
<g>
	<text transform="matrix(1 0 0 1 -19.375 163.5)" fill="#0C75F2" font-family="'MyriadPro-Regular'" font-size="3">0.091517241</text>
</g>
<text transform="matrix(1 0 0 1 10.4585 136.1318)" fill="#0C75F2" font-family="'MyriadPro-Regular'" font-size="3">0.024137931</text>
<g>
	<text transform="matrix(1 0 0 1 10.625 139.5)" fill="#0C75F2" font-family="'MyriadPro-Regular'" font-size="3">0.036551724</text>
</g>
<path fill="none" stroke="#0C75F2" stroke-miterlimit="10" d="M137.125,0"/>
<line fill="none" stroke="#0C75F2" stroke-miterlimit="10" x1="183.761" y1="64.485" x2="183.761" y2="0"/>
<text transform="matrix(1 0 0 1 197 37.2339)" fill="#0C75F2" font-family="'MyriadPro-Regular'" font-size="6">64.25</text>
<g>
	<text transform="matrix(1 0 0 1 197 45.5483)" fill="#0C75F2" font-family="'MyriadPro-Regular'" font-size="6">0.490458015</text>
</g>
</svg>
