<?xml version="1.0" encoding="utf-8"?>
<!-- Generator: Adobe Illustrator 14.0.0, SVG Export Plug-In . SVG Version: 6.00 Build 43363)  -->
<!DOCTYPE svg PUBLIC "-//W3C//DTD SVG 1.1//EN" "http://www.w3.org/Graphics/SVG/1.1/DTD/svg11.dtd">
<svg version="1.1" id="splash" xmlns="http://www.w3.org/2000/svg" xmlns:xlink="http://www.w3.org/1999/xlink" x="0px" y="0px"
	 width="136.858px" height="103.952px" viewBox="0 0 136.858 103.952" enable-background="new 0 0 136.858 103.952"
	 xml:space="preserve">
<path id="_x36_-show-2014-between" fill="none" stroke="#000000" stroke-width="10" stroke-miterlimit="10" d="M136.858,0.15
	c6.623,0.038,11.805,0,15.21,0c0,0,15.296-51.188-34.201-76.028c-44.779-22.473-95.94-14.415-132.758,5.541
	C-66.744-42.231-86.75,33.267-58.205,74.978c9.653,14.105,32.396,28.974,48.268,28.974c4.795,0,5.552,0,10.76,0"/>
<line fill="none" stroke="#000000" stroke-width="2" stroke-miterlimit="10" x1="0" y1="-6.362" x2="135.262" y2="-6.362"/>
<line fill="none" stroke="#000000" stroke-width="2" stroke-miterlimit="10" x1="-2.996" y1="0" x2="-2.996" y2="103.952"/>
<line fill="none" stroke="#58F9DA" stroke-miterlimit="10" x1="143.423" y1="11.644" x2="136.858" y2="11.644"/>
<line fill="none" stroke="#58F9DA" stroke-miterlimit="10" x1="148.468" y1="14" x2="136.858" y2="14"/>
<line fill="none" stroke="#58F9DA" stroke-miterlimit="10" x1="136.858" y1="17.975" x2="152.068" y2="17.975"/>
<line fill="none" stroke="#3177E8" stroke-miterlimit="10" x1="167.365" y1="-51.038" x2="152.068" y2="0.15"/>
<line fill="none" stroke="#3177E8" stroke-miterlimit="10" x1="152.068" y1="0.15" x2="117.868" y2="-75.878"/>
<line fill="none" stroke="#3177E8" stroke-miterlimit="10" x1="73.088" y1="-98.351" x2="117.868" y2="-75.878"/>
<line fill="none" stroke="#3177E8" stroke-miterlimit="10" x1="21.928" y1="-90.293" x2="117.868" y2="-75.878"/>
<line fill="none" stroke="#3177E8" stroke-miterlimit="10" x1="117.868" y1="-75.878" x2="-14.891" y2="-70.337"/>
<line fill="none" stroke="#3177E8" stroke-miterlimit="10" x1="-66.744" y1="-42.231" x2="-14.891" y2="-70.337"/>
<line fill="none" stroke="#3177E8" stroke-miterlimit="10" x1="-86.75" y1="33.267" x2="-14.891" y2="-70.337"/>
<line fill="none" stroke="#3177E8" stroke-miterlimit="10" x1="-58.205" y1="74.978" x2="-14.891" y2="-70.337"/>
<line fill="none" stroke="#3177E8" stroke-miterlimit="10" x1="-48.551" y1="89.083" x2="-58.205" y2="74.978"/>
<line fill="none" stroke="#3177E8" stroke-miterlimit="10" x1="-25.809" y1="103.952" x2="-58.205" y2="74.978"/>
<line fill="none" stroke="#3177E8" stroke-miterlimit="10" x1="-9.937" y1="103.952" x2="-58.205" y2="74.978"/>
<line fill="none" stroke="#58F9DA" stroke-miterlimit="10" x1="167.365" y1="-51.038" x2="152.068" y2="-51.038"/>
<line fill="none" stroke="#58F9DA" stroke-miterlimit="10" x1="167.375" y1="-75.351" x2="117.868" y2="-75.351"/>
<line fill="none" stroke="#58F9DA" stroke-miterlimit="10" x1="167.365" y1="-51.038" x2="167.365" y2="0.15"/>
<line fill="none" stroke="#58F9DA" stroke-miterlimit="10" x1="170.75" y1="-75.625" x2="170.75" y2="0.15"/>
<line fill="none" stroke="#58F9DA" stroke-miterlimit="10" x1="117.868" y1="-75.879" x2="117.868" y2="-98.351"/>
<line fill="none" stroke="#58F9DA" stroke-miterlimit="10" x1="22.42" y1="-75.879" x2="22.42" y2="-90.293"/>
<line fill="none" stroke="#58F9DA" stroke-miterlimit="10" x1="-14.58" y1="-75.878" x2="-14.58" y2="-70.41"/>
<line fill="none" stroke="#58F9DA" stroke-miterlimit="10" x1="73.088" y1="-98.351" x2="117.868" y2="-98.351"/>
<line fill="none" stroke="#58F9DA" stroke-miterlimit="10" x1="22.42" y1="-90.351" x2="117.868" y2="-90.351"/>
<line fill="none" stroke="#58F9DA" stroke-miterlimit="10" x1="-14.58" y1="-75.879" x2="117.868" y2="-75.879"/>
<line fill="none" stroke="#58F9DA" stroke-miterlimit="10" x1="-66.742" y1="-70.337" x2="-14.891" y2="-70.337"/>
<line fill="none" stroke="#58F9DA" stroke-miterlimit="10" x1="-86.75" y1="33.267" x2="-14.891" y2="33.267"/>
<line fill="none" stroke="#58F9DA" stroke-miterlimit="10" x1="-58.205" y1="74.978" x2="-25.809" y2="74.978"/>
<line fill="none" stroke="#58F9DA" stroke-miterlimit="10" x1="-58.205" y1="89.083" x2="-48.551" y2="89.083"/>
<line fill="none" stroke="#58F9DA" stroke-miterlimit="10" x1="-58.205" y1="103.952" x2="-25.809" y2="103.952"/>
<line fill="none" stroke="#58F9DA" stroke-miterlimit="10" x1="-58.204" y1="107.952" x2="-9.937" y2="107.952"/>
<line fill="none" stroke="#58F9DA" stroke-miterlimit="10" x1="-66.742" y1="-70.337" x2="-66.742" y2="-42.231"/>
<line fill="none" stroke="#58F9DA" stroke-miterlimit="10" x1="-86.75" y1="-70.337" x2="-86.75" y2="33.267"/>
<line fill="none" stroke="#58F9DA" stroke-miterlimit="10" x1="-58.205" y1="-70.337" x2="-58.205" y2="74.978"/>
<line fill="none" stroke="#58F9DA" stroke-miterlimit="10" x1="-48.551" y1="74.979" x2="-48.551" y2="89.083"/>
<line fill="none" stroke="#58F9DA" stroke-miterlimit="10" x1="-25.809" y1="74.979" x2="-25.809" y2="103.952"/>
<line fill="none" stroke="#58F9DA" stroke-miterlimit="10" x1="-9.937" y1="74.979" x2="-9.937" y2="103.952"/>
<line fill="none" stroke="#58F9DA" stroke-miterlimit="10" x1="-5.125" y1="115" x2="-9.937" y2="115"/>
<line fill="none" stroke="#58F9DA" stroke-miterlimit="10" x1="-4.438" y1="117.562" x2="-9.937" y2="117.562"/>
<line fill="none" stroke="#58F9DA" stroke-miterlimit="10" x1="0.823" y1="119.688" x2="-9.937" y2="119.688"/>
<text transform="matrix(1 0 0 1 5 48.5)" font-family="'MyriadPro-Regular'" font-size="12">102.66</text>
<text transform="matrix(1 0 0 1 38 6)" font-family="'MyriadPro-Regular'" font-size="12">135.333</text>
<text transform="matrix(1 0 0 1 159.9995 13)" fill="#58F9DA" font-family="'MyriadPro-Regular'" font-size="3">6.518</text>
<text transform="matrix(1 0 0 1 159.9995 16)" fill="#58F9DA" font-family="'MyriadPro-Regular'" font-size="3">11.467</text>
<text transform="matrix(1 0 0 1 159.9995 19)" fill="#58F9DA" font-family="'MyriadPro-Regular'" font-size="3">15.096</text>
<g>
	<text transform="matrix(1 0 0 1 156.856 -77.0254)" fill="#58F9DA" font-family="'MyriadPro-Regular'" font-size="3">-49.507</text>
</g>
<g>
	<text transform="matrix(1 0 0 1 154.3003 -53.165)" fill="#58F9DA" font-family="'MyriadPro-Regular'" font-size="3">15.296</text>
</g>
<g>
	<text transform="matrix(1 0 0 1 173.7778 -52.415)" fill="#58F9DA" font-family="'MyriadPro-Regular'" font-size="3">-51.188</text>
</g>
<g>
	<text transform="matrix(1 0 0 1 173.2905 -73.1074)" fill="#58F9DA" font-family="'MyriadPro-Regular'" font-size="3">-75.775</text>
</g>
<path fill="#58F9DA" d="M189.75-54.926c0,0,8.625,0,11,0c0,0,1-5.699-4.5-9.324"/>
<g>
	<text transform="matrix(1 0 0 1 173.2905 -6.3623)" fill="#58F9DA" font-family="'MyriadPro-Regular'" font-size="3">0</text>
</g>
<g>
	<text transform="matrix(1 0 0 1 176.2905 -6.3623)" fill="#58F9DA" font-family="'MyriadPro-Regular'" font-size="3">0</text>
</g>
<g>
	<text transform="matrix(1 0 0 1 101.5 -101)" fill="#58F9DA" font-family="'MyriadPro-Regular'" font-size="3">-44.78</text>
</g>
<text transform="matrix(1 0 0 1 120.5 -86)" fill="#58F9DA" font-family="'MyriadPro-Regular'" font-size="3">-22.472</text>
<g>
	<text transform="matrix(1 0 0 1 35.5 -94)" fill="#58F9DA" font-family="'MyriadPro-Regular'" font-size="3">-95.448</text>
</g>
<g>
	<text transform="matrix(1 0 0 1 11.167 -89.418)" fill="#58F9DA" font-family="'MyriadPro-Regular'" font-size="3">-14.414</text>
</g>
<g>
	<text transform="matrix(1 0 0 1 -25.3335 -74.1445)" fill="#58F9DA" font-family="'MyriadPro-Regular'" font-size="3">5.468</text>
</g>
<g>
	<text transform="matrix(1 0 0 1 -6.5 -77.833)" fill="#58F9DA" font-family="'MyriadPro-Regular'" font-size="3">-132.448</text>
</g>
<g>
	<text transform="matrix(1 0 0 1 -56.5 -74)" fill="#58F9DA" font-family="'MyriadPro-Regular'" font-size="3">-51.852</text>
</g>
<g>
	<text transform="matrix(1 0 0 1 -77.5 -57)" fill="#58F9DA" font-family="'MyriadPro-Regular'" font-size="3">28.106</text>
</g>
<g>
	<text transform="matrix(1 0 0 1 -99.5 -37)" fill="#58F9DA" font-family="'MyriadPro-Regular'" font-size="3">103.604</text>
</g>
<g>
	<text transform="matrix(1 0 0 1 -78.5 38)" fill="#58F9DA" font-family="'MyriadPro-Regular'" font-size="3">-71.859</text>
</g>
<g>
	<text transform="matrix(1 0 0 1 -55.5 2)" fill="#58F9DA" font-family="'MyriadPro-Regular'" font-size="3">145.314</text>
</g>
<g>
	<text transform="matrix(1 0 0 1 -44.5 72)" fill="#58F9DA" font-family="'MyriadPro-Regular'" font-size="3">-32.396</text>
</g>
<g>
	<text transform="matrix(1 0 0 1 -72.5 90)" fill="#58F9DA" font-family="'MyriadPro-Regular'" font-size="3">9.653</text>
</g>
<g>
	<text transform="matrix(1 0 0 1 -73.5 104)" fill="#58F9DA" font-family="'MyriadPro-Regular'" font-size="3">32.396</text>
</g>
<g>
	<text transform="matrix(1 0 0 1 -74.5 109)" fill="#58F9DA" font-family="'MyriadPro-Regular'" font-size="3">48.268</text>
</g>
<g>
	<text transform="matrix(1 0 0 1 -44.5 83)" fill="#58F9DA" font-family="'MyriadPro-Regular'" font-size="3">14.104</text>
</g>
<g>
	<text transform="matrix(1 0 0 1 -23.5 83)" fill="#58F9DA" font-family="'MyriadPro-Regular'" font-size="3">28.974</text>
</g>
<g>
	<text transform="matrix(1 0 0 1 -7.5 83)" fill="#58F9DA" font-family="'MyriadPro-Regular'" font-size="3">28.974</text>
</g>
<g>
	<text transform="matrix(1 0 0 1 -19.5 116)" fill="#58F9DA" font-family="'MyriadPro-Regular'" font-size="3">4.812</text>
</g>
<g>
	<text transform="matrix(1 0 0 1 -19.5 119)" fill="#58F9DA" font-family="'MyriadPro-Regular'" font-size="3">5.499</text>
</g>
<g>
	<text transform="matrix(1 0 0 1 -19.5 122)" fill="#58F9DA" font-family="'MyriadPro-Regular'" font-size="3">10.76</text>
</g>
</svg>
