<?xml version="1.0" encoding="utf-8"?>
<!-- Generator: Adobe Illustrator 17.0.0, SVG Export Plug-In . SVG Version: 6.00 Build 0)  -->
<!DOCTYPE svg PUBLIC "-//W3C//DTD SVG 1.1 Tiny//EN" "http://www.w3.org/Graphics/SVG/1.1/DTD/svg11-tiny.dtd">
<svg version="1.1" baseProfile="tiny" id="Layer_1" xmlns="http://www.w3.org/2000/svg" xmlns:xlink="http://www.w3.org/1999/xlink"
	 x="0px" y="0px" width="800px" height="1280px" viewBox="0 0 800 1280" xml:space="preserve">
<rect x="1" fill="#F6492E" width="1599" height="895"/>
<path id="line_4_" fill="none" stroke="#FFFFFF" stroke-width="5" stroke-miterlimit="10" d="M58.186,844.959"/>
<path id="line_2_" fill="none" stroke="#FFFFFF" stroke-width="5" stroke-miterlimit="10" d="M16.754,0c0,0,1298.779,0,1408.719,0
	c0,83.872-61.132,129.615-195.592,129.615c-250.519,0-193.831,214.565-423.306,214.565c-53.298,0-160.641,0.005-160.641,0.005
	l0-286.092c0,0,91.606,0,124.106,0c186.636,0,190.761,203.135,5.214,203.135c-156.958,0-341.366-172.099-572.654-172.099
	c-213.134,0-304.462,131.885-304.462,302.3c4.284,0,11.368,0,11.368,0"/>
</svg>
