<?xml version="1.0" encoding="utf-8"?>
<!-- Generator: Adobe Illustrator 17.0.0, SVG Export Plug-In . SVG Version: 6.00 Build 0)  -->
<!DOCTYPE svg PUBLIC "-//W3C//DTD SVG 1.1 Tiny//EN" "http://www.w3.org/Graphics/SVG/1.1/DTD/svg11-tiny.dtd">
<svg version="1.1" baseProfile="tiny" id="Layer_1" xmlns="http://www.w3.org/2000/svg" xmlns:xlink="http://www.w3.org/1999/xlink"
	 x="0px" y="0px" width="800px" height="1280px" viewBox="0 0 800 1280" overflow="visible" xml:space="preserve">
<polyline fill="#F6492E" points="1024,768 0,768 0,0 1024,0 "/>
<path id="line_4_" fill="none" stroke="#FFFFFF" stroke-width="5" stroke-miterlimit="10" d="M1.698-0.734H9v179.95
	c0,0-23.332,0-65.478,0c0-128.588,108.27-243.045,259.339-243.045C449.289-63.829,416.934,223,133.966,223
	c-167.641,0-17.215-190.534,242.808-190.534C646.751,32.466,663.751,195,663.751,195s-134.01,0.018-167.5,0.018
	c0-127.018,81.5-195.752,263.5-195.752c6.437,0,28,0,28,0"/>
</svg>
