<?xml version="1.0" encoding="utf-8"?>
<!-- Generator: Adobe Illustrator 17.0.0, SVG Export Plug-In . SVG Version: 6.00 Build 0)  -->
<!DOCTYPE svg PUBLIC "-//W3C//DTD SVG 1.1 Tiny//EN" "http://www.w3.org/Graphics/SVG/1.1/DTD/svg11-tiny.dtd">
<svg version="1.1" baseProfile="tiny" id="Layer_1" xmlns="http://www.w3.org/2000/svg" xmlns:xlink="http://www.w3.org/1999/xlink"
	 x="0px" y="0px" width="800px" height="1280px" viewBox="0 0 800 1280" xml:space="preserve">
<rect fill="#F6492E" width="1024" height="768"/>
<path id="line_1_" fill="none" stroke="#FFFFFF" stroke-width="5" stroke-miterlimit="10" d="M-0.754,0h889.719
	c0,0-9.906,33.908-49.544,47.023c-30.912,10.228-111.956,12.085-178.348,65.982c-83.14,67.493-59.158,170.992-201.836,170.992
	c-33.138,0-99.88,0.003-99.88,0.003l0-215.105c0,0,14.293-0.134,34.5,0c170.362,1.128,176.608,153.713,54.608,153.713
	c-153,0-215.593-165.791-332.96-165.791c-174.04,0-193.741,286.557-193.741,286.557h4.529"/>
</svg>
