<?xml version="1.0" encoding="utf-8"?>
<!-- Generator: Adobe Illustrator 14.0.0, SVG Export Plug-In . SVG Version: 6.00 Build 43363)  -->
<!DOCTYPE svg PUBLIC "-//W3C//DTD SVG 1.1//EN" "http://www.w3.org/Graphics/SVG/1.1/DTD/svg11.dtd">
<svg version="1.1" id="Layer_1" xmlns="http://www.w3.org/2000/svg" xmlns:xlink="http://www.w3.org/1999/xlink" x="0px" y="0px"
	 width="1283.217px" height="1810.801px" viewBox="0 0 1283.217 1810.801" enable-background="new 0 0 1283.217 1810.801"
	 xml:space="preserve">
<g id="old" display="none">
	<g id="text" display="inline">
		<text transform="matrix(1 0 0 1 48.4326 128.7051)" fill="#FFFFFF" font-family="'Theinhardt-Md'" font-size="138.1767">RISD</text>
		<text transform="matrix(1 0 0 1 59.4126 427.6816)" fill="#FFFFFF" font-family="'Theinhardt-Md'" font-size="138.1767">Grad</text>
		<text transform="matrix(1 0 0 1 418.2197 427.6816)" fill="#FFFFFF" font-family="'Theinhardt-Md'" font-size="138.1767">Show</text>
		<text transform="matrix(1 0 0 1 653.6523 771.6816)" fill="#FFFFFF" font-family="'Theinhardt-Md'" font-size="138.1767">2</text>
		
			<text transform="matrix(1 0 0 1 736.6953 771.6816)" fill="#FFFFFF" font-family="'Theinhardt-Md'" font-size="138.1767" letter-spacing="-5">0</text>
		
			<text transform="matrix(1 0 0 1 809.9287 771.6816)" fill="#FFFFFF" font-family="'Theinhardt-Md'" font-size="138.1767" letter-spacing="-9">1</text>
		<text transform="matrix(1 0 0 1 878.4639 771.6816)" fill="#FFFFFF" font-family="'Theinhardt-Md'" font-size="138.1767">4</text>
	</g>
	<g id="line_1" display="inline">
		<path fill="none" stroke="#FFFFFF" stroke-width="20" stroke-miterlimit="10" d="M59.413,89.467h341.971V263H32.121v128.926
			h1133.312c0,0,65.49,343.338-283.336,343.338h-643.88V573.793l65.025-0.092c42.396,0,200.302-5.204,200.302,161.562
			c0,58.375-0.745,67.742-0.745,67.742"/>
	</g>
	<g id="Layer_10" display="inline">
		<rect x="1016.153" y="152.409" fill="none" width="494.13" height="226.446"/>
		<text transform="matrix(1 0 0 1 1016.1533 164.6504)" fill="#FFFFFF" font-family="'Theinhardt-Md'" font-size="18">R</text>
		<text transform="matrix(1 0 0 1 1028.6631 164.6504)" fill="#FFFFFF" font-family="'Theinhardt-Md'" font-size="18">I Convention Center </text>
		<text transform="matrix(1 0 0 1 1016.1533 186.25)" fill="#FFFFFF" font-family="'Theinhardt-Md'" font-size="18">Exhibition Hall </text>
		<text transform="matrix(1 0 0 1 1134.0117 186.25)" fill="#FFFFFF" font-family="'Theinhardt-Md'" font-size="18">A</text>
		<text transform="matrix(1 0 0 1 1016.1533 207.8496)" fill="#FFFFFF" font-family="'Theinhardt-Md'" font-size="18">One Sabin Street, Providence</text>
		<text transform="matrix(1 0 0 1 1016.1533 251.0479)" fill="#FFFFFF" font-family="'Theinhardt-Md'" font-size="18">Open 1</text>
		<text transform="matrix(1 0 0 1 1073.9678 251.0479)" fill="#FFFFFF" font-family="'Theinhardt-Md'" font-size="18">2–</text>
		<text transform="matrix(1 0 0 1 1099.8516 251.0479)" fill="#FFFFFF" font-family="'Theinhardt-Md'" font-size="18">5pm Daily</text>
		<text transform="matrix(1 0 0 1 1016.1533 272.6504)" fill="#FFFFFF" font-family="'Theinhardt-Md'" font-size="18">May 17</text>
		<text transform="matrix(1 0 0 1 1073.374 272.6504)" fill="#FFFFFF" font-family="'Theinhardt-Md'" font-size="18">–</text>
		<text transform="matrix(1 0 0 1 1086.4785 272.6504)" fill="#FFFFFF" font-family="'Theinhardt-Md'" font-size="18">31</text>
		<g>
			<text transform="matrix(1 0 0 1 479.6528 539.6328)" fill="#FFFFFF" font-family="'Theinhardt-Md'" font-size="24.4179">Rhode Island School of Design</text>
			<text transform="matrix(1 0 0 1 888.4014 539.6328)" fill="#FFFFFF" font-family="'Theinhardt-Md'" font-size="24.4179"> </text>
			<text transform="matrix(1 0 0 1 479.6528 567.4688)" fill="#FFFFFF" font-family="'Theinhardt-Md'" font-size="24.4179">Graduate Thesis Exhibition </text>
		</g>
		<rect x="468.171" y="58.777" fill="none" width="494.13" height="226.446"/>
		<text transform="matrix(1 0 0 1 468.1709 71.0176)" fill="#FFFFFF" font-family="'Theinhardt-Md'" font-size="18">Open to the public, RISD&apos;s annual Graduate Thesis Exhibition </text>
		<text transform="matrix(1 0 0 1 468.1709 92.6172)" fill="#FFFFFF" font-family="'Theinhardt-Md'" font-size="18">features work in a wide range of media created by the 194 </text>
		<text transform="matrix(1 0 0 1 468.1709 114.2168)" fill="#FFFFFF" font-family="'Theinhardt-Md'" font-size="18">master&apos;s degree candidates graduating on June 1. Each stu</text>
		<text transform="matrix(1 0 0 1 932.4365 114.2168)" fill="#FFFFFF" font-family="'Theinhardt-Md'" font-size="18">-</text>
		<text transform="matrix(1 0 0 1 468.1709 135.8184)" fill="#FFFFFF" font-family="'Theinhardt-Md'" font-size="18">dent showcases a final body of work produced as the culmin</text>
		<text transform="matrix(1 0 0 1 949.1924 135.8184)" fill="#FFFFFF" font-family="'Theinhardt-Md'" font-size="18">-</text>
		<text transform="matrix(1 0 0 1 468.1709 157.416)" fill="#FFFFFF" font-family="'Theinhardt-Md'" font-size="18">tion of his or her experience in one of RISD&apos;s 16 graduate de</text>
		<text transform="matrix(1 0 0 1 942.4795 157.416)" fill="#FFFFFF" font-family="'Theinhardt-Md'" font-size="18">-</text>
		<text transform="matrix(1 0 0 1 468.1709 179.0186)" fill="#FFFFFF" font-family="'Theinhardt-Md'" font-size="18">partments: Architecture, Ceramics, Digital + Media, Furniture </text>
		<text transform="matrix(1 0 0 1 468.1709 200.6182)" fill="#FFFFFF" font-family="'Theinhardt-Md'" font-size="18">Design, Glass, Graphic Design, Industrial Design, Interior Archi</text>
		<text transform="matrix(1 0 0 1 955.2764 200.6182)" fill="#FFFFFF" font-family="'Theinhardt-Md'" font-size="18">-</text>
		<text transform="matrix(1 0 0 1 468.1709 222.2168)" fill="#FFFFFF" font-family="'Theinhardt-Md'" font-size="18">tecture, Jewelry + Metalsmithing, Landscape Architecture, </text>
		<text transform="matrix(1 0 0 1 468.1709 243.8184)" fill="#FFFFFF" font-family="'Theinhardt-Md'" font-size="18">Painting, Photography, Printmaking, Sculpture, Teaching + </text>
		<text transform="matrix(1 0 0 1 468.1709 265.416)" fill="#FFFFFF" font-family="'Theinhardt-Md'" font-size="18">Learning in Art + Design, and Textiles.</text>
	</g>
</g>
<g id="original_poster" display="none">
	<rect x="-1526.265" y="77.947" display="inline" fill="#262262" width="1265.821" height="1760.625"/>
	<path display="inline" fill="none" stroke="#FFFFFF" stroke-width="30" stroke-miterlimit="10" d="M-1445.862,204.56h511.982
		v173.533h-570.34V507.02h1203.312c0,0,65.49,363.341-283.336,363.341h-336.462V708.886l65.025-0.092
		c42.397,0,210.302-5.204,210.302,161.563c0,58.375-50.496,115.481-120.471,185.459c-105.286,105.285-55.526,280.881,93.244,280.881
		c151.799,0,262.306,0.244,262.306,0.244V1091.84l0,0c0,0-363.96,19.756-244.031,290.316
		c71.545,161.406,345.616,66.309,345.616,267.602c0,49.883,0.106,87.018,0.106,87.018h-652.413l0.527-309.18h-379.935"/>
	<g display="inline">
		<text transform="matrix(1 0 0 1 -1469.1816 655.5479)" fill="#FFFFFF" font-family="'Theinhardt-Bd'" font-size="24.4179">Rhode Island School of Design</text>
		<text transform="matrix(1 0 0 1 -1093.0303 655.5479)" fill="#FFFFFF" font-family="'Theinhardt-Bd'" font-size="24.4179"> </text>
		<text transform="matrix(1 0 0 1 -1469.1816 683.3828)" fill="#FFFFFF" font-family="'Theinhardt-Bd'" font-size="24.4179">Graduate Thesis Exhibition </text>
	</g>
	<rect x="-1469.182" y="748.765" display="inline" fill="none" width="378.946" height="574.783"/>
	
		<text transform="matrix(1 0 0 1 -1469.1826 766.1025)" display="inline" fill="#FFFFFF" font-family="'Theinhardt-Bd'" font-size="24.4179">Architecture</text>
	
		<text transform="matrix(1 0 0 1 -1469.1826 793.9375)" display="inline" fill="#FFFFFF" font-family="'Theinhardt-Bd'" font-size="24.4179">Ceramics</text>
	
		<text transform="matrix(1 0 0 1 -1469.1826 821.7754)" display="inline" fill="#FFFFFF" font-family="'Theinhardt-Bd'" font-size="24.4179">Digital + Media</text>
	
		<text transform="matrix(1 0 0 1 -1469.1826 849.6104)" display="inline" fill="#FFFFFF" font-family="'Theinhardt-Bd'" font-size="24.4179">Furniture</text>
	
		<text transform="matrix(1 0 0 1 -1469.1826 877.4482)" display="inline" fill="#FFFFFF" font-family="'Theinhardt-Bd'" font-size="24.4179">Glass</text>
	
		<text transform="matrix(1 0 0 1 -1469.1826 905.2842)" display="inline" fill="#FFFFFF" font-family="'Theinhardt-Bd'" font-size="24.4179">Graphic Design </text>
	
		<text transform="matrix(1 0 0 1 -1469.1826 933.1191)" display="inline" fill="#FFFFFF" font-family="'Theinhardt-Bd'" font-size="24.4179">Industrial Design</text>
	
		<text transform="matrix(1 0 0 1 -1469.1826 960.9551)" display="inline" fill="#FFFFFF" font-family="'Theinhardt-Bd'" font-size="24.4179">Interior Architecture</text>
	
		<text transform="matrix(1 0 0 1 -1469.1826 988.793)" display="inline" fill="#FFFFFF" font-family="'Theinhardt-Bd'" font-size="24.4179">Jewelry + Metalsmithing</text>
	
		<text transform="matrix(1 0 0 1 -1469.1826 1016.6289)" display="inline" fill="#FFFFFF" font-family="'Theinhardt-Bd'" font-size="24.4179">Landscape Architecture</text>
	
		<text transform="matrix(1 0 0 1 -1469.1826 1044.4668)" display="inline" fill="#FFFFFF" font-family="'Theinhardt-Bd'" font-size="24.4179">Painting</text>
	
		<text transform="matrix(1 0 0 1 -1469.1826 1072.3027)" display="inline" fill="#FFFFFF" font-family="'Theinhardt-Bd'" font-size="24.4179">Photography</text>
	
		<text transform="matrix(1 0 0 1 -1469.1826 1100.1387)" display="inline" fill="#FFFFFF" font-family="'Theinhardt-Bd'" font-size="24.4179">Printmaking</text>
	
		<text transform="matrix(1 0 0 1 -1469.1826 1127.9746)" display="inline" fill="#FFFFFF" font-family="'Theinhardt-Bd'" font-size="24.4179">Sculpture</text>
	
		<text transform="matrix(1 0 0 1 -1469.1826 1155.8105)" display="inline" fill="#FFFFFF" font-family="'Theinhardt-Bd'" font-size="24.4179">Textiles</text>
	<g display="inline">
		<path fill="#FFFFFF" d="M-1412.849,1413.61l25.103-9.262l7.613,22.225l-25.514,8.021l17.49,20.576l-19.341,14.816l-16.461-22.02
			l-16.461,22.02l-19.341-14.816l17.49-20.576l-25.515-8.021l7.613-22.225l25.103,9.262l-0.617-28.604h23.457L-1412.849,1413.61z"/>
	</g>
	
		<text transform="matrix(1 0 0 1 -1478.7432 552.2979)" display="inline" fill="#FFFFFF" font-family="'Theinhardt-Md'" font-size="214.8771" letter-spacing="1">Grad</text>
	
		<text transform="matrix(1 0 0 1 -816.1982 1793.3867)" display="inline" fill="#FFFFFF" font-family="'Theinhardt-Md'" font-size="214.8771">2</text>
	
		<text transform="matrix(1 0 0 1 -687.0576 1793.3867)" display="inline" fill="#FFFFFF" font-family="'Theinhardt-Md'" font-size="214.8771" letter-spacing="-9">0</text>
	
		<text transform="matrix(1 0 0 1 -573.1738 1793.3867)" display="inline" fill="#FFFFFF" font-family="'Theinhardt-Md'" font-size="214.8771" letter-spacing="-17">1</text>
	
		<text transform="matrix(1 0 0 1 -466.5957 1793.3867)" display="inline" fill="#FFFFFF" font-family="'Theinhardt-Md'" font-size="214.8771" letter-spacing="1">4</text>
	
		<text transform="matrix(1 0 0 1 -1478.7432 266.1348)" display="inline" fill="#FFFFFF" font-family="'Theinhardt-Md'" font-size="214.8771" letter-spacing="1">RISD</text>
	
		<text transform="matrix(1 0 0 1 -824.8076 552.2988)" display="inline" fill="#FFFFFF" font-family="'Theinhardt-Md'" font-size="214.8771" letter-spacing="1">Show</text>
	
		<text transform="matrix(1 0 0 1 -1468.2441 1793.2539)" display="inline" fill="#FFFFFF" font-family="'Theinhardt-Bd'" font-size="23.4411">http://www.risd.edu/thesis</text>
	<rect x="-1469.182" y="1500.077" display="inline" fill="none" width="494.13" height="226.444"/>
	
		<text transform="matrix(1 0 0 1 -1469.1816 1516.7188)" display="inline" fill="#FFFFFF" font-family="'Theinhardt-Bd'" font-size="23.4411">R</text>
	
		<text transform="matrix(1 0 0 1 -1454.8359 1516.7188)" display="inline" fill="#FFFFFF" font-family="'Theinhardt-Bd'" font-size="23.4411">I Convention Center </text>
	
		<text transform="matrix(1 0 0 1 -1469.1816 1544.8477)" display="inline" fill="#FFFFFF" font-family="'Theinhardt-Bd'" font-size="23.4411">Exhibition Hall </text>
	
		<text transform="matrix(1 0 0 1 -1322.7725 1544.8477)" display="inline" fill="#FFFFFF" font-family="'Theinhardt-Bd'" font-size="23.4411">A</text>
	
		<text transform="matrix(1 0 0 1 -1469.1816 1572.9766)" display="inline" fill="#FFFFFF" font-family="'Theinhardt-Bd'" font-size="23.4411">One Sabin Street, Providence</text>
	
		<text transform="matrix(1 0 0 1 -1469.1816 1629.2363)" display="inline" fill="#FFFFFF" font-family="'Theinhardt-Bd'" font-size="23.4411">Open 1</text>
	
		<text transform="matrix(1 0 0 1 -1397.9453 1629.2363)" display="inline" fill="#FFFFFF" font-family="'Theinhardt-Bd'" font-size="23.4411">2–</text>
	
		<text transform="matrix(1 0 0 1 -1369.5127 1629.2363)" display="inline" fill="#FFFFFF" font-family="'Theinhardt-Bd'" font-size="23.4411">5pm Daily</text>
	
		<text transform="matrix(1 0 0 1 -1469.1816 1657.3652)" display="inline" fill="#FFFFFF" font-family="'Theinhardt-Bd'" font-size="23.4411">May 17</text>
	
		<text transform="matrix(1 0 0 1 -1398.9775 1657.3652)" display="inline" fill="#FFFFFF" font-family="'Theinhardt-Bd'" font-size="23.4411">–</text>
	
		<text transform="matrix(1 0 0 1 -1385.3818 1657.3652)" display="inline" fill="#FFFFFF" font-family="'Theinhardt-Bd'" font-size="23.4411">31</text>
</g>
<g id="solid_color_background">
	<rect x="-6.783" fill="#262262" width="1290" height="2000"/>
</g>
<g id="map">
	<g id="google_map" display="none">
		
			<image display="inline" overflow="visible" enable-background="new    " width="1410" height="847" xlink:href="6365D715.png"  transform="matrix(1.1035 0 0 1.1035 -127.9219 967.2617)">
		</image>
	</g>
	<g id="land">
		<path opacity="0.2" fill="#4B4BE0" enable-background="new    " d="M3.217,1035c0,0,389.408,0,473,0
			s239.148,134.508,403.076,143.582c52.504,2.906,79.496-31.498,170.992-59.998c91.495-28.498,141.437-8.711,232.933,79.783V2005
			l-764.667-4l-408-0.668l-108-0.332L3.217,1035z"/>
	</g>
	<g id="street">
		<g opacity="0.2" enable-background="new    ">
			<g>
				<g>
					<g>
						<defs>
							<path id="SVGID_1_" d="M3.217,1035c0,0,389.408,0,473,0s239.148,134.508,403.076,143.582
								c52.504,2.906,79.496-31.498,170.992-59.998c91.495-28.498,141.437-8.711,232.933,79.783V2005l-764.667-4l-408-0.668
								l-108-0.332L3.217,1035z"/>
						</defs>
						<clipPath id="SVGID_2_">
							<use xlink:href="#SVGID_1_"  overflow="visible"/>
						</clipPath>
						<g clip-path="url(#SVGID_2_)">
							
								<line fill="none" stroke="#FFFFFF" stroke-width="12" stroke-miterlimit="10" x1="1210.86" y1="1142.317" x2="748.407" y2="1397.436"/>
							
								<line fill="none" stroke="#FFFFFF" stroke-width="12" stroke-miterlimit="10" x1="1303.217" y1="1165" x2="370.393" y2="2054"/>
							
								<line fill="none" stroke="#FFFFFF" stroke-width="12" stroke-miterlimit="10" x1="1448.217" y1="1257" x2="633.399" y2="2033.54"/>
							
								<line fill="none" stroke="#FFFFFF" stroke-width="12" stroke-miterlimit="10" x1="1898.217" y1="974" x2="1153.217" y2="1684"/>
							
								<line fill="none" stroke="#FFFFFF" stroke-width="12" stroke-miterlimit="10" x1="1160.364" y1="1676.602" x2="812.071" y2="2174.727"/>
							<polyline fill="none" stroke="#FFFFFF" stroke-width="12" stroke-miterlimit="10" points="643.217,1514 464.611,1684.215 
								-26.783,1845.598 							"/>
							<path fill="none" stroke="#FFFFFF" stroke-width="12" stroke-miterlimit="10" d="M747.217,1398c0,0-221.9,0-293.896,0
								s-91.495-21.928-188.991-48.928C166.831,1322.075-61.783,1330-61.783,1330"/>
							<path fill="none" stroke="#FFFFFF" stroke-width="12" stroke-miterlimit="10" d="M733.757,1436.333"/>
							
								<line fill="none" stroke="#FFFFFF" stroke-width="12" stroke-miterlimit="10" x1="1324.771" y1="2033.54" x2="729.148" y2="1443.969"/>
							
								<line fill="none" stroke="#FFFFFF" stroke-width="12" stroke-miterlimit="10" x1="1283.771" y1="2073.54" x2="688.148" y2="1483.969"/>
							
								<line fill="none" stroke="#FFFFFF" stroke-width="12" stroke-miterlimit="10" x1="1228.771" y1="2103.54" x2="633.148" y2="1513.969"/>
							
								<line fill="none" stroke="#FFFFFF" stroke-width="12" stroke-miterlimit="10" x1="1160.771" y1="2174.54" x2="357.907" y2="1379.834"/>
							
								<line fill="none" stroke="#FFFFFF" stroke-width="12" stroke-miterlimit="10" x1="1129.681" y1="1720.485" x2="931.148" y2="1523.969"/>
							
								<line fill="none" stroke="#FFFFFF" stroke-width="12" stroke-miterlimit="10" x1="1698.771" y1="2061.54" x2="1103.148" y2="1471.969"/>
							
								<line fill="none" stroke="#FFFFFF" stroke-width="12" stroke-miterlimit="10" x1="1612.771" y1="1729.54" x2="1017.148" y2="1139.969"/>
							
								<line fill="none" stroke="#FFFFFF" stroke-width="12" stroke-miterlimit="10" x1="1840.217" y1="763" x2="1025.399" y2="1539.54"/>
						</g>
					</g>
				</g>
			</g>
		</g>
	</g>
	<g id="line">
		<path fill="none" stroke="#FFFFFF" stroke-width="18" stroke-miterlimit="10" d="M644.219,803v23.331
			c0,119.667-292,120.667-292,258.667c0,14.678,0.002,140.752,0.002,140.752l-0.002,94.295c0,0,102.603,2.773,102.603-94.539
			c0-47.508-36.602-100.508-100.941-100.508c-67,0-100.045,48.08-100.045,100.975l495.406-1.148c0,0,1.604,106.523,1.604,149.176
			c0,166.014-206.629,166.014-206.629,166.014V1399c0,0,126-0.24,183-0.24s192.666,51.574,324.858,177.561l249.131,234.479"/>
	</g>
	<g id="text_1_">
		<rect x="786.043" y="1254.024" fill="none" width="504.077" height="226.443"/>
		<text transform="matrix(1 0 0 1 786.043 1274.4219)" fill="#FFFFFF" font-family="'Theinhardt-Md'" font-size="30">R</text>
		<text transform="matrix(1 0 0 1 806.8936 1274.4219)" fill="#FFFFFF" font-family="'Theinhardt-Md'" font-size="30">I Convention Center </text>
		<text transform="matrix(1 0 0 1 786.043 1310.4219)" fill="#FFFFFF" font-family="'Theinhardt-Md'" font-size="30">Exhibition Hall </text>
		<text transform="matrix(1 0 0 1 982.4805 1310.4219)" fill="#FFFFFF" font-family="'Theinhardt-Md'" font-size="30">A</text>
		<text transform="matrix(1 0 0 1 786.043 1346.4219)" fill="#FFFFFF" font-family="'Theinhardt-Md'" font-size="30">One Sabin Street, Providence</text>
		<rect x="410.217" y="1349.334" fill="none" width="257" height="49"/>
		<text transform="matrix(1 0 0 1 509.4434 1365.6562)" fill="#FFFFFF" font-family="'Theinhardt-Md'" font-size="24">W Exchange St</text>
		
			<rect x="643.808" y="1452" transform="matrix(0.7063 0.7079 -0.7079 0.7063 1317.6001 -0.8357)" fill="none" width="31.999" height="270.993"/>
		
			<text transform="matrix(0.7079 -0.7063 0.7063 0.7079 693.1172 1554.7793)" fill="#FFFFFF" font-family="'Theinhardt-Md'" font-size="24">Sabin St</text>
	</g>
	<g id="drop_pin">
		<path fill="#E21313" d="M721.852,1398.653c0,5.077-3.047,8.93-5.28,13.07c-3.452,6.396-13.535,24.607-13.535,24.607
			s-10.547-19.328-13.074-24.146c-2.287-4.36-5.743-8.222-5.743-13.532c0-10.395,8.426-18.818,18.817-18.818
			C713.427,1379.835,721.852,1388.26,721.852,1398.653z"/>
	</g>
</g>
<g id="home">
	<g id="logo">
		<text transform="matrix(1 0 0 1 48.4326 128.7051)" fill="#FFFFFF" font-family="'Theinhardt-Md'" font-size="138.1767">RISD</text>
		<text transform="matrix(1 0 0 1 53.4126 420.6816)" fill="#FFFFFF" font-family="'Theinhardt-Md'" font-size="138.1767">Grad</text>
		<text transform="matrix(1 0 0 1 756.2148 420.6816)" fill="#FFFFFF" font-family="'Theinhardt-Md'" font-size="138.1767">Show</text>
		<text transform="matrix(1 0 0 1 757.7061 676.9219)" fill="#FFFFFF" font-family="'Theinhardt-Md'" font-size="138.1767">2</text>
		
			<text transform="matrix(1 0 0 1 840.749 676.9219)" fill="#FFFFFF" font-family="'Theinhardt-Md'" font-size="138.1767" letter-spacing="-5">0</text>
		
			<text transform="matrix(1 0 0 1 913.9814 676.9219)" fill="#FFFFFF" font-family="'Theinhardt-Md'" font-size="138.1767" letter-spacing="-9">1</text>
		<text transform="matrix(1 0 0 1 982.5176 676.9219)" fill="#FFFFFF" font-family="'Theinhardt-Md'" font-size="138.1767">4</text>
	</g>
	<g id="line_1_">
		<path fill="none" stroke="#FFFFFF" stroke-width="18" stroke-miterlimit="10" d="M75.413,89.467h341.971V263H48.121v128.926
			h348.677V636c415.42,0,395.42,0,653.42,0c201,0,182.22-253.267,182.22-253.267H644.217v420.272"/>
	</g>
	<g id="text_2_">
		<rect x="638.217" y="154.236" fill="none" width="494.13" height="226.446"/>
		<text transform="matrix(1 0 0 1 638.2178 209.6758)" fill="#FFFFFF" font-family="'Theinhardt-Md'" font-size="36">May 17</text>
		<text transform="matrix(1 0 0 1 752.6592 209.6758)" fill="#FFFFFF" font-family="'Theinhardt-Md'" font-size="36">–</text>
		<text transform="matrix(1 0 0 1 778.8662 209.6758)" fill="#FFFFFF" font-family="'Theinhardt-Md'" font-size="36">31</text>
		<rect x="2402.171" y="-551.591" fill="none" width="494.13" height="226.446"/>
		<text transform="matrix(1 0 0 1 2402.1709 -539.3496)" fill="#FFFFFF" font-family="'Theinhardt-Md'" font-size="18">Open to the public, RISD&apos;s annual Graduate Thesis Exhibition </text>
		<text transform="matrix(1 0 0 1 2402.1709 -517.75)" fill="#FFFFFF" font-family="'Theinhardt-Md'" font-size="18">features work in a wide range of media created by the 194 </text>
		<text transform="matrix(1 0 0 1 2402.1709 -496.1504)" fill="#FFFFFF" font-family="'Theinhardt-Md'" font-size="18">master&apos;s degree candidates graduating on June 1. Each stu</text>
		<text transform="matrix(1 0 0 1 2866.4365 -496.1504)" fill="#FFFFFF" font-family="'Theinhardt-Md'" font-size="18">-</text>
		<text transform="matrix(1 0 0 1 2402.1709 -474.5508)" fill="#FFFFFF" font-family="'Theinhardt-Md'" font-size="18">dent showcases a final body of work produced as the culmin</text>
		<text transform="matrix(1 0 0 1 2883.1924 -474.5508)" fill="#FFFFFF" font-family="'Theinhardt-Md'" font-size="18">-</text>
		<text transform="matrix(1 0 0 1 2402.1709 -452.9512)" fill="#FFFFFF" font-family="'Theinhardt-Md'" font-size="18">tion of his or her experience in one of RISD&apos;s 16 graduate de</text>
		<text transform="matrix(1 0 0 1 2876.4795 -452.9512)" fill="#FFFFFF" font-family="'Theinhardt-Md'" font-size="18">-</text>
		<text transform="matrix(1 0 0 1 2402.1709 -431.3496)" fill="#FFFFFF" font-family="'Theinhardt-Md'" font-size="18">partments: Architecture, Ceramics, Digital + Media, Furniture </text>
		<text transform="matrix(1 0 0 1 2402.1709 -409.75)" fill="#FFFFFF" font-family="'Theinhardt-Md'" font-size="18">Design, Glass, Graphic Design, Industrial Design, Interior Archi</text>
		<text transform="matrix(1 0 0 1 2889.2764 -409.75)" fill="#FFFFFF" font-family="'Theinhardt-Md'" font-size="18">-</text>
		<text transform="matrix(1 0 0 1 2402.1709 -388.1504)" fill="#FFFFFF" font-family="'Theinhardt-Md'" font-size="18">tecture, Jewelry + Metalsmithing, Landscape Architecture, </text>
		<text transform="matrix(1 0 0 1 2402.1709 -366.5508)" fill="#FFFFFF" font-family="'Theinhardt-Md'" font-size="18">Painting, Photography, Printmaking, Sculpture, Teaching + </text>
		<text transform="matrix(1 0 0 1 2402.1709 -344.9512)" fill="#FFFFFF" font-family="'Theinhardt-Md'" font-size="18">Learning in Art + Design, and Textiles.</text>
		<rect x="684.217" y="771.081" fill="none" width="494.13" height="226.447"/>
		<text transform="matrix(1 0 0 1 684.2178 803.7207)" fill="#FFFFFF" font-family="'Theinhardt-Md'" font-size="48">Visit</text>
		<rect x="638.217" y="67.705" fill="none" width="689" height="112"/>
		<text transform="matrix(1 0 0 1 638.2173 90.1465)" fill="#FFFFFF" font-family="'Theinhardt-Md'" font-size="33">Rhode Island School of Design </text>
		<text transform="matrix(1 0 0 1 638.2173 129.7461)" fill="#FFFFFF" font-family="'Theinhardt-Md'" font-size="33">Graduate Thesis Exhibition </text>
	</g>
</g>
</svg>
