<svg version="1.1" id="Layer_1" xmlns="http://www.w3.org/2000/svg" xmlns:xlink="http://www.w3.org/1999/xlink" x="0px" y="0px"
	 width="1280px" height="2000px" viewBox="0 0 1280 2000" enable-background="new 0 0 1280 2000" xml:space="preserve">
<g>
	<defs>
		<rect id="SVGID_1_" width="1280" height="2000"/>
	</defs>
	<clipPath id="SVGID_2_">
		<use xlink:href="#SVGID_1_"  overflow="visible"/>
	</clipPath>
	<rect clip-path="url(#SVGID_2_)" fill="#262262" width="1280" height="2000"/>
	<g clip-path="url(#SVGID_2_)">
		<defs>
			<rect id="SVGID_3_" width="1280" height="2000"/>
		</defs>
		<clipPath id="SVGID_4_">
			<use xlink:href="#SVGID_3_"  overflow="visible"/>
		</clipPath>
		<g opacity="0.5" clip-path="url(#SVGID_4_)">
			<g>
				<defs>
					<rect id="SVGID_5_" x="768.663" y="1155.56" width="328.117" height="232.44"/>
				</defs>
				<clipPath id="SVGID_6_">
					<use xlink:href="#SVGID_5_"  overflow="visible"/>
				</clipPath>
			</g>
		</g>
		<g opacity="0.5" clip-path="url(#SVGID_4_)">
			<g>
				<defs>
					<rect id="SVGID_7_" x="805.045" y="1241" width="340.955" height="219.496"/>
				</defs>
				<clipPath id="SVGID_8_">
					<use xlink:href="#SVGID_7_"  overflow="visible"/>
				</clipPath>
			</g>
		</g>
		<g opacity="0.5" clip-path="url(#SVGID_4_)">
			<g>
				<defs>
					<rect id="SVGID_9_" x="964.452" y="1305.444" width="219.858" height="202.448"/>
				</defs>
				<clipPath id="SVGID_10_">
					<use xlink:href="#SVGID_9_"  overflow="visible"/>
				</clipPath>
			</g>
		</g>
		<g opacity="0.5" clip-path="url(#SVGID_4_)">
			<g>
				<defs>
					<rect id="SVGID_11_" x="1005.45" y="1350.444" width="239.3" height="224.414"/>
				</defs>
				<clipPath id="SVGID_12_">
					<use xlink:href="#SVGID_11_"  overflow="visible"/>
				</clipPath>
			</g>
		</g>
		<g opacity="0.5" clip-path="url(#SVGID_4_)">
			<g>
				<defs>
					<rect id="SVGID_13_" x="887.596" y="1500.928" width="154.274" height="152.31"/>
				</defs>
				<clipPath id="SVGID_14_">
					<use xlink:href="#SVGID_13_"  overflow="visible"/>
				</clipPath>
			</g>
		</g>
		<g opacity="0.5" clip-path="url(#SVGID_4_)">
			<g>
				<defs>
					<rect id="SVGID_15_" x="853.517" y="1565.928" width="127.353" height="124.132"/>
				</defs>
				<clipPath id="SVGID_16_">
					<use xlink:href="#SVGID_15_"  overflow="visible"/>
				</clipPath>
			</g>
		</g>
		<g opacity="0.5" clip-path="url(#SVGID_4_)">
			<g>
				<defs>
					<rect id="SVGID_17_" x="816.517" y="1603.928" width="127.353" height="124.132"/>
				</defs>
				<clipPath id="SVGID_18_">
					<use xlink:href="#SVGID_17_"  overflow="visible"/>
				</clipPath>
			</g>
		</g>
		<g opacity="0.5" clip-path="url(#SVGID_4_)">
			<g>
				<defs>
					<rect id="SVGID_19_" x="752.998" y="1635.928" width="157.871" height="156.075"/>
				</defs>
				<clipPath id="SVGID_20_">
					<use xlink:href="#SVGID_19_"  overflow="visible"/>
				</clipPath>
			</g>
		</g>
		<g opacity="0.5" clip-path="url(#SVGID_4_)">
			<g>
				<defs>
					<rect id="SVGID_21_" x="712.717" y="1698.928" width="129.152" height="126.017"/>
				</defs>
				<clipPath id="SVGID_22_">
					<use xlink:href="#SVGID_21_"  overflow="visible"/>
				</clipPath>
			</g>
		</g>
		<g opacity="0.5" clip-path="url(#SVGID_4_)">
			<g>
				<defs>
					<rect id="SVGID_23_" x="789.596" y="1500.975" width="83.404" height="82.415"/>
				</defs>
				<clipPath id="SVGID_24_">
					<use xlink:href="#SVGID_23_"  overflow="visible"/>
				</clipPath>
			</g>
		</g>
		<g opacity="0.5" clip-path="url(#SVGID_4_)">
			<g>
				<defs>
					<rect id="SVGID_25_" x="699.517" y="1479.928" width="138.292" height="134.584"/>
				</defs>
				<clipPath id="SVGID_26_">
					<use xlink:href="#SVGID_25_"  overflow="visible"/>
				</clipPath>
			</g>
		</g>
		<g opacity="0.5" clip-path="url(#SVGID_4_)">
			<g>
				<defs>
					<rect id="SVGID_27_" x="712.018" y="1590.928" width="85.193" height="85.996"/>
				</defs>
				<clipPath id="SVGID_28_">
					<use xlink:href="#SVGID_27_"  overflow="visible"/>
				</clipPath>
			</g>
		</g>
		<g opacity="0.5" clip-path="url(#SVGID_4_)">
			<g>
				<defs>
					<rect id="SVGID_29_" x="569" y="1574.928" width="162.869" height="137.289"/>
				</defs>
				<clipPath id="SVGID_30_">
					<use xlink:href="#SVGID_29_"  overflow="visible"/>
				</clipPath>
			</g>
		</g>
		<g opacity="0.5" clip-path="url(#SVGID_4_)">
			<g>
				<defs>
					<rect id="SVGID_31_" x="634.717" y="1513.423" width="112.912" height="112.199"/>
				</defs>
				<clipPath id="SVGID_32_">
					<use xlink:href="#SVGID_31_"  overflow="visible"/>
				</clipPath>
			</g>
		</g>
		<g opacity="0.5" clip-path="url(#SVGID_4_)">
			<g>
				<defs>
					<rect id="SVGID_33_" x="774.596" y="1434.582" width="149.404" height="112.605"/>
				</defs>
				<clipPath id="SVGID_34_">
					<use xlink:href="#SVGID_33_"  overflow="visible"/>
				</clipPath>
			</g>
		</g>
		<g opacity="0.5" clip-path="url(#SVGID_4_)">
			<g>
				<defs>
					<rect id="SVGID_35_" x="732.596" y="1450.39" width="79.186" height="78"/>
				</defs>
				<clipPath id="SVGID_36_">
					<use xlink:href="#SVGID_35_"  overflow="visible"/>
				</clipPath>
			</g>
		</g>
		<g opacity="0.5" clip-path="url(#SVGID_4_)">
			<g>
				<defs>
					<rect id="SVGID_37_" x="540.601" y="1284.075" width="212.414" height="95.824"/>
				</defs>
				<clipPath id="SVGID_38_">
					<use xlink:href="#SVGID_37_"  overflow="visible"/>
				</clipPath>
			</g>
		</g>
		<g opacity="0.5" clip-path="url(#SVGID_4_)">
			<g>
				<defs>
					<rect id="SVGID_39_" x="387.58" y="1467.013" width="226.42" height="189.785"/>
				</defs>
				<clipPath id="SVGID_40_">
					<use xlink:href="#SVGID_39_"  overflow="visible"/>
				</clipPath>
			</g>
		</g>
		<g opacity="0.5" clip-path="url(#SVGID_4_)">
			<g>
				<defs>
					<rect id="SVGID_41_" x="1061" y="1155.56" width="89" height="64.44"/>
				</defs>
				<clipPath id="SVGID_42_">
					<use xlink:href="#SVGID_41_"  overflow="visible"/>
				</clipPath>
			</g>
		</g>
		<g opacity="0.5" clip-path="url(#SVGID_4_)">
			<g>
				<defs>
					<rect id="SVGID_43_" x="1112" y="1198" width="87" height="82"/>
				</defs>
				<clipPath id="SVGID_44_">
					<use xlink:href="#SVGID_43_"  overflow="visible"/>
				</clipPath>
			</g>
		</g>
		<g opacity="0.5" clip-path="url(#SVGID_4_)">
			<g>
				<defs>
					<rect id="SVGID_45_" x="1155.45" y="1251.059" width="82.43" height="80.834"/>
				</defs>
				<clipPath id="SVGID_46_">
					<use xlink:href="#SVGID_45_"  overflow="visible"/>
				</clipPath>
			</g>
		</g>
		<g opacity="0.5" clip-path="url(#SVGID_4_)">
			<g>
				<defs>
					<rect id="SVGID_47_" x="1199.45" y="1300.594" width="99.92" height="100.752"/>
				</defs>
				<clipPath id="SVGID_48_">
					<use xlink:href="#SVGID_47_"  overflow="visible"/>
				</clipPath>
			</g>
		</g>
		<g opacity="0.5" clip-path="url(#SVGID_4_)">
			<g>
				<defs>
					<rect id="SVGID_49_" x="537.601" y="1118.076" width="210.028" height="127.924"/>
				</defs>
				<clipPath id="SVGID_50_">
					<use xlink:href="#SVGID_49_"  overflow="visible"/>
				</clipPath>
			</g>
		</g>
		<g opacity="0.5" clip-path="url(#SVGID_4_)">
			<g>
				<defs>
					<rect id="SVGID_51_" x="721.601" y="1164" width="116.208" height="93"/>
				</defs>
				<clipPath id="SVGID_52_">
					<use xlink:href="#SVGID_51_"  overflow="visible"/>
				</clipPath>
			</g>
		</g>
	</g>
	<g clip-path="url(#SVGID_2_)">
		<defs>
			<rect id="SVGID_53_" width="1280" height="2000"/>
		</defs>
		<clipPath id="SVGID_54_">
			<use xlink:href="#SVGID_53_"  overflow="visible"/>
		</clipPath>
	</g>
	<g clip-path="url(#SVGID_2_)">
		<text transform="matrix(1 0 0 1 61.2153 148.7051)"><tspan x="0" y="0" fill="#FFFFFF" font-family="'Theinhardt-Md'" font-size="138.1767">R</tspan><tspan x="86.358" y="0" fill="#FFFFFF" font-family="'Theinhardt-Md'" font-size="138.1767">I</tspan><tspan x="122.975" y="0" fill="#FFFFFF" font-family="'Theinhardt-Md'" font-size="138.1767">S</tspan><tspan x="207.538" y="0" fill="#FFFFFF" font-family="'Theinhardt-Md'" font-size="138.1767">D</tspan></text>
	</g>
	<g clip-path="url(#SVGID_2_)">
		<text transform="matrix(1 0 0 1 66.1895 420.6367)"><tspan x="0" y="0" fill="#FFFFFF" font-family="'Theinhardt-Md'" font-size="138.1767">G</tspan><tspan x="96.86" y="0" fill="#FFFFFF" font-family="'Theinhardt-Md'" font-size="138.1767">r</tspan><tspan x="145.636" y="0" fill="#FFFFFF" font-family="'Theinhardt-Md'" font-size="138.1767">a</tspan><tspan x="216.105" y="0" fill="#FFFFFF" font-family="'Theinhardt-Md'" font-size="138.1767">d</tspan></text>
	</g>
	<g clip-path="url(#SVGID_2_)">
		<text transform="matrix(1 0 0 1 832.5176 420.6367)"><tspan x="0" y="0" fill="#FFFFFF" font-family="'Theinhardt-Md'" font-size="138.1767">S</tspan><tspan x="85.116" y="0" fill="#FFFFFF" font-family="'Theinhardt-Md'" font-size="138.1767">h</tspan><tspan x="161.526" y="0" fill="#FFFFFF" font-family="'Theinhardt-Md'" font-size="138.1767">o</tspan><tspan x="237.246" y="0" fill="#FFFFFF" font-family="'Theinhardt-Md'" font-size="138.1767">w</tspan></text>
	</g>
	<g clip-path="url(#SVGID_2_)">
		<text transform="matrix(1 0 0 1 821.0488 694.9175)" fill="#FFFFFF" font-family="'Theinhardt-Md'" font-size="138.1767">2</text>
	</g>
	<g clip-path="url(#SVGID_2_)">
		<text transform="matrix(1 0 0 1 904.0928 694.9175)" fill="#FFFFFF" font-family="'Theinhardt-Md'" font-size="138.1767">0</text>
	</g>
	<g clip-path="url(#SVGID_2_)">
		<text transform="matrix(1 0 0 1 977.3271 694.9175)" fill="#FFFFFF" font-family="'Theinhardt-Md'" font-size="138.1767">1</text>
	</g>
	<g clip-path="url(#SVGID_2_)">
		<text transform="matrix(1 0 0 1 1045.8623 694.9175)" fill="#FFFFFF" font-family="'Theinhardt-Md'" font-size="138.1767">4</text>
	</g>
	<g clip-path="url(#SVGID_2_)">
		<defs>
			<rect id="SVGID_55_" width="1280" height="2000"/>
		</defs>
		<clipPath id="SVGID_56_">
			<use xlink:href="#SVGID_55_"  overflow="visible"/>
		</clipPath>
		<path id="first-section" class="path-to-animate" clip-path="url(#SVGID_56_)" fill="none" stroke="#FFFFFF" stroke-width="18" stroke-miterlimit="10" d="M72.195,109.467
			h341.971V263H44.903v128.926h328.677l855.639-9.192c0,0,12.01,273.668-199.605,273.668H601.5V207c0,0-5.464-146,126.518-148"/>
	</g>
	<g clip-path="url(#SVGID_2_)">
		<text transform="matrix(1 0 0 1 880.9355 47.7227)" fill="#FFFFFF" font-family="'Theinhardt-Md'" font-size="18">R</text>
	</g>
	<g clip-path="url(#SVGID_2_)">
		<text transform="matrix(1 0 0 1 893.4453 47.7227)" fill="#FFFFFF" font-family="'Theinhardt-Md'" font-size="18">I Convention Center </text>
	</g>
	<g clip-path="url(#SVGID_2_)">
		<text transform="matrix(1 0 0 1 880.9355 69.3228)"><tspan x="0" y="0" fill="#FFFFFF" font-family="'Theinhardt-Md'" font-size="18">Exhibition Ha</tspan><tspan x="104.487" y="0" fill="#FFFFFF" font-family="'Theinhardt-Md'" font-size="18">l</tspan><tspan x="109.06" y="0" fill="#FFFFFF" font-family="'Theinhardt-Md'" font-size="18">l </tspan></text>
	</g>
	<g clip-path="url(#SVGID_2_)">
		<text transform="matrix(1 0 0 1 998.9795 69.3228)" fill="#FFFFFF" font-family="'Theinhardt-Md'" font-size="18">A</text>
	</g>
	<g clip-path="url(#SVGID_2_)">
		<text transform="matrix(1 0 0 1 880.9355 90.9229)"><tspan x="0" y="0" fill="#FFFFFF" font-family="'Theinhardt-Md'" font-size="18">One Sabin St</tspan><tspan x="103.552" y="0" fill="#FFFFFF" font-family="'Theinhardt-Md'" font-size="18">r</tspan><tspan x="109.438" y="0" fill="#FFFFFF" font-family="'Theinhardt-Md'" font-size="18">eet</tspan><tspan x="134.638" y="0" fill="#FFFFFF" font-family="'Theinhardt-Md'" font-size="18">,</tspan><tspan x="137.95" y="0" fill="#FFFFFF" font-family="'Theinhardt-Md'" font-size="18"> </tspan><tspan x="142.54" y="0" fill="#FFFFFF" font-family="'Theinhardt-Md'" font-size="18">P</tspan><tspan x="152.962" y="0" fill="#FFFFFF" font-family="'Theinhardt-Md'" font-size="18">r</tspan><tspan x="158.848" y="0" fill="#FFFFFF" font-family="'Theinhardt-Md'" font-size="18">ovidence</tspan></text>
	</g>
	<g clip-path="url(#SVGID_2_)">
		<text transform="matrix(1 0 0 1 880.9355 134.1226)" fill="#FFFFFF" font-family="'Theinhardt-Md'" font-size="18">Open 1</text>
	</g>
	<g clip-path="url(#SVGID_2_)">
		<text transform="matrix(1 0 0 1 938.751 134.1226)" fill="#FFFFFF" font-family="'Theinhardt-Md'" font-size="18">2</text>
	</g>
	<g clip-path="url(#SVGID_2_)">
		<text transform="matrix(1 0 0 1 951.1709 134.1226)" fill="#FFFFFF" font-family="'Theinhardt-Md'" font-size="18">–</text>
	</g>
	<g clip-path="url(#SVGID_2_)">
		<text transform="matrix(1 0 0 1 964.6348 134.1226)" fill="#FFFFFF" font-family="'Theinhardt-Md'" font-size="18">5pm Daily</text>
	</g>
	<g clip-path="url(#SVGID_2_)">
		<text transform="matrix(1 0 0 1 880.9355 155.7227)"><tspan x="0" y="0" fill="#FFFFFF" font-family="'Theinhardt-Md'" font-size="18">M</tspan><tspan x="14.256" y="0" fill="#FFFFFF" font-family="'Theinhardt-Md'" font-size="18">a</tspan><tspan x="23.436" y="0" fill="#FFFFFF" font-family="'Theinhardt-Md'" font-size="18">y 1</tspan></text>
	</g>
	<g clip-path="url(#SVGID_2_)">
		<text transform="matrix(1 0 0 1 927.501 155.7227)" fill="#FFFFFF" font-family="'Theinhardt-Md'" font-size="18">7</text>
	</g>
	<g clip-path="url(#SVGID_2_)">
		<text transform="matrix(1 0 0 1 938.1211 155.7227)" fill="#FFFFFF" font-family="'Theinhardt-Md'" font-size="18">–</text>
	</g>
	<g clip-path="url(#SVGID_2_)">
		<text transform="matrix(1 0 0 1 951.2246 155.7227)" fill="#FFFFFF" font-family="'Theinhardt-Md'" font-size="18">31</text>
	</g>
	<g clip-path="url(#SVGID_2_)">
		<text transform="matrix(1 0 0 1 70.4702 525.5542)"><tspan x="0" y="0" fill="#FFFFFF" font-family="'Theinhardt-Md'" font-size="24.4176">R</tspan><tspan x="15.456" y="0" fill="#FFFFFF" font-family="'Theinhardt-Md'" font-size="24.4176">HOD</tspan><tspan x="66.83" y="0" fill="#FFFFFF" font-family="'Theinhardt-Md'" font-size="24.4176">E </tspan><tspan x="88.146" y="0" fill="#FFFFFF" font-family="'Theinhardt-Md'" font-size="24.4176">I</tspan><tspan x="94.812" y="0" fill="#FFFFFF" font-family="'Theinhardt-Md'" font-size="24.4176">S</tspan><tspan x="109.951" y="0" fill="#FFFFFF" font-family="'Theinhardt-Md'" font-size="24.4176">L</tspan><tspan x="123.136" y="0" fill="#FFFFFF" font-family="'Theinhardt-Md'" font-size="24.4176">A</tspan><tspan x="138.202" y="0" fill="#FFFFFF" font-family="'Theinhardt-Md'" font-size="24.4176">N</tspan><tspan x="155.099" y="0" fill="#FFFFFF" font-family="'Theinhardt-Md'" font-size="24.4176">D</tspan><tspan x="171.849" y="0" fill="#FFFFFF" font-family="'Theinhardt-Md'" font-size="24.4176"> </tspan><tspan x="178.441" y="0" fill="#FFFFFF" font-family="'Theinhardt-Md'" font-size="24.4176">S</tspan><tspan x="193.629" y="0" fill="#FFFFFF" font-family="'Theinhardt-Md'" font-size="24.4176">C</tspan><tspan x="209.744" y="0" fill="#FFFFFF" font-family="'Theinhardt-Md'" font-size="24.4176">H</tspan><tspan x="226.788" y="0" fill="#FFFFFF" font-family="'Theinhardt-Md'" font-size="24.4176">O</tspan><tspan x="244.49" y="0" fill="#FFFFFF" font-family="'Theinhardt-Md'" font-size="24.4176">O</tspan><tspan x="262.168" y="0" fill="#FFFFFF" font-family="'Theinhardt-Md'" font-size="24.4176">L </tspan><tspan x="281.433" y="0" fill="#FFFFFF" font-family="'Theinhardt-Md'" font-size="24.4176">O</tspan><tspan x="299.111" y="0" fill="#FFFFFF" font-family="'Theinhardt-Md'" font-size="24.4176">F </tspan><tspan x="318.792" y="0" fill="#FFFFFF" font-family="'Theinhardt-Md'" font-size="24.4176">D</tspan><tspan x="335.444" y="0" fill="#FFFFFF" font-family="'Theinhardt-Md'" font-size="24.4176">E</tspan><tspan x="350.534" y="0" fill="#FFFFFF" font-family="'Theinhardt-Md'" font-size="24.4176">S</tspan><tspan x="365.722" y="0" fill="#FFFFFF" font-family="'Theinhardt-Md'" font-size="24.4176">I</tspan><tspan x="372.51" y="0" fill="#FFFFFF" font-family="'Theinhardt-Md'" font-size="24.4176">G</tspan><tspan x="389.773" y="0" fill="#FFFFFF" font-family="'Theinhardt-Md'" font-size="24.4176">N</tspan></text>
	</g>
	<g clip-path="url(#SVGID_2_)">
		<text transform="matrix(1 0 0 1 477.5605 525.5542)" fill="#FFFFFF" font-family="'Theinhardt-Md'" font-size="24.4176"> </text>
	</g>
	<g clip-path="url(#SVGID_2_)">
		<text transform="matrix(1 0 0 1 70.4702 553.3906)"><tspan x="0" y="0" fill="#FFFFFF" font-family="'Theinhardt-Md'" font-size="24.4176">G</tspan><tspan x="17.141" y="0" fill="#FFFFFF" font-family="'Theinhardt-Md'" font-size="24.4176">R</tspan><tspan x="33.256" y="0" fill="#FFFFFF" font-family="'Theinhardt-Md'" font-size="24.4176">A</tspan><tspan x="48.224" y="0" fill="#FFFFFF" font-family="'Theinhardt-Md'" font-size="24.4176">D</tspan><tspan x="64.706" y="0" fill="#FFFFFF" font-family="'Theinhardt-Md'" font-size="24.4176">U</tspan><tspan x="80.503" y="0" fill="#FFFFFF" font-family="'Theinhardt-Md'" font-size="24.4176" letter-spacing="-1">A</tspan><tspan x="93.859" y="0" fill="#FFFFFF" font-family="'Theinhardt-Md'" font-size="24.4176">T</tspan><tspan x="106.972" y="0" fill="#FFFFFF" font-family="'Theinhardt-Md'" font-size="24.4176">E </tspan><tspan x="128.043" y="0" fill="#FFFFFF" font-family="'Theinhardt-Md'" font-size="24.4176">T</tspan><tspan x="141.155" y="0" fill="#FFFFFF" font-family="'Theinhardt-Md'" font-size="24.4176">H</tspan><tspan x="158.028" y="0" fill="#FFFFFF" font-family="'Theinhardt-Md'" font-size="24.4176">E</tspan><tspan x="172.996" y="0" fill="#FFFFFF" font-family="'Theinhardt-Md'" font-size="24.4176">S</tspan><tspan x="188.061" y="0" fill="#FFFFFF" font-family="'Theinhardt-Md'" font-size="24.4176">I</tspan><tspan x="194.629" y="0" fill="#FFFFFF" font-family="'Theinhardt-Md'" font-size="24.4176">S</tspan><tspan x="209.89" y="0" fill="#FFFFFF" font-family="'Theinhardt-Md'" font-size="24.4176"> </tspan><tspan x="216.361" y="0" fill="#FFFFFF" font-family="'Theinhardt-Md'" font-size="24.4176">E</tspan><tspan x="231.695" y="0" fill="#FFFFFF" font-family="'Theinhardt-Md'" font-size="24.4176">X</tspan><tspan x="247.175" y="0" fill="#FFFFFF" font-family="'Theinhardt-Md'" font-size="24.4176">H</tspan><tspan x="264.023" y="0" fill="#FFFFFF" font-family="'Theinhardt-Md'" font-size="24.4176">I</tspan><tspan x="270.494" y="0" fill="#FFFFFF" font-family="'Theinhardt-Md'" font-size="24.4176">B</tspan><tspan x="286.243" y="0" fill="#FFFFFF" font-family="'Theinhardt-Md'" font-size="24.4176">I</tspan><tspan x="292.665" y="0" fill="#FFFFFF" font-family="'Theinhardt-Md'" font-size="24.4176">T</tspan><tspan x="305.776" y="0" fill="#FFFFFF" font-family="'Theinhardt-Md'" font-size="24.4176">IO</tspan><tspan x="329.901" y="0" fill="#FFFFFF" font-family="'Theinhardt-Md'" font-size="24.4176">N</tspan><tspan x="346.846" y="0" fill="#FFFFFF" font-family="'Theinhardt-Md'" font-size="24.4176"> </tspan></text>
	</g>
	<g clip-path="url(#SVGID_2_)">
		<defs>
			<rect id="SVGID_57_" width="1280" height="2000"/>
		</defs>
		<clipPath id="SVGID_58_">
			<use xlink:href="#SVGID_57_"  overflow="visible"/>
		</clipPath>
		<polygon clip-path="url(#SVGID_58_)" fill="#FFFFFF" points="806.26,45.806 830.107,37.01 837.339,58.12 813.101,65.744 
			829.716,85.29 811.342,99.364 795.705,78.449 780.067,99.364 761.694,85.29 778.308,65.744 754.07,58.12 761.303,37.01 
			785.15,45.806 784.562,18.636 806.846,18.636 		"/>
	</g>
	<g clip-path="url(#SVGID_2_)">
		<defs>
			<rect id="SVGID_59_" width="1280" height="2000"/>
		</defs>
		<clipPath id="SVGID_60_">
			<use xlink:href="#SVGID_59_"  overflow="visible"/>
		</clipPath>
		<path id="second-section" class="path-to-animate" clip-path="url(#SVGID_60_)" fill="none" stroke="#FFFFFF" stroke-width="18" stroke-miterlimit="10" d="M730,942h467v429
			h-101c-84,0-252.661,90-248.661,50S1066,1240,742,1364.5C416.68,1489.507,434,1239,434,1239l200,2v190c0,124-228,146-274,146H61
			v-465h349V963H66"/>
	</g>
	<g clip-path="url(#SVGID_2_)">
		<text transform="matrix(1 0 0 1 430.832 1205.3994)"><tspan x="0" y="0" fill="#FFFFFF" font-family="'Theinhardt-Md'" font-size="30">W E</tspan><tspan x="50.609" y="0" fill="#FFFFFF" font-family="'Theinhardt-Md'" font-size="30">x</tspan><tspan x="63.989" y="0" fill="#FFFFFF" font-family="'Theinhardt-Md'" font-size="30">c</tspan><tspan x="78.779" y="0" fill="#FFFFFF" font-family="'Theinhardt-Md'" font-size="30">h</tspan><tspan x="95.219" y="0" fill="#FFFFFF" font-family="'Theinhardt-Md'" font-size="30">ange St</tspan></text>
	</g>
	<g clip-path="url(#SVGID_2_)">
		
			<text transform="matrix(-6.123234e-17 -1 1 -6.123234e-17 681.8984 1345.999)" fill="#FFFFFF" font-family="'Theinhardt-Md'" font-size="30">Sabin St</text>
	</g>
	<g clip-path="url(#SVGID_2_)">
		<defs>
			<rect id="SVGID_61_" width="1280" height="2000"/>
		</defs>
		<clipPath id="SVGID_62_">
			<use xlink:href="#SVGID_61_"  overflow="visible"/>
		</clipPath>
		<path clip-path="url(#SVGID_62_)" fill="#E21313" d="M689.635,1173.652c0,5.079-3.047,8.931-5.283,13.073
			c-3.452,6.395-13.534,24.607-13.534,24.607s-10.547-19.328-13.075-24.147c-2.286-4.36-5.742-8.221-5.742-13.533
			c0-10.393,8.425-18.817,18.817-18.817S689.635,1163.26,689.635,1173.652"/>
	</g>
	<g clip-path="url(#SVGID_2_)">
		<text transform="matrix(1 0 0 1 901.7217 1113.4131)" fill="#FFFFFF" font-family="'Theinhardt-Md'" font-size="30">A</text>
	</g>
	<g clip-path="url(#SVGID_2_)">
		<text transform="matrix(1 0 0 1 121.4976 1606.6826)"><tspan x="0" y="0" fill="#FFFFFF" font-family="'Theinhardt-Md'" font-size="138.1767">S</tspan><tspan x="85.117" y="0" fill="#FFFFFF" font-family="'Theinhardt-Md'" font-size="138.1767">h</tspan><tspan x="161.526" y="0" fill="#FFFFFF" font-family="'Theinhardt-Md'" font-size="138.1767">o</tspan><tspan x="237.246" y="0" fill="#FFFFFF" font-family="'Theinhardt-Md'" font-size="138.1767">w</tspan></text>
	</g>
	<g clip-path="url(#SVGID_2_)">
		<text transform="matrix(1 0 0 1 757.3867 982.9531)" fill="#FFFFFF" font-family="'Theinhardt-Md'" font-size="138.1767">2</text>
	</g>
	<g clip-path="url(#SVGID_2_)">
		<text transform="matrix(1 0 0 1 913.6641 982.9531)" fill="#FFFFFF" font-family="'Theinhardt-Md'" font-size="138.1767">1</text>
	</g>
	<g clip-path="url(#SVGID_2_)">
		<text transform="matrix(1 0 0 1 982.2002 982.9531)" fill="#FFFFFF" font-family="'Theinhardt-Md'" font-size="138.1767">4</text>
	</g>
</g>
</svg>
