<?xml version="1.0" encoding="utf-8"?>
<!-- Generator: Adobe Illustrator 17.0.0, SVG Export Plug-In . SVG Version: 6.00 Build 0)  -->
<!DOCTYPE svg PUBLIC "-//W3C//DTD SVG 1.1//EN" "http://www.w3.org/Graphics/SVG/1.1/DTD/svg11.dtd">
<svg version="1.1" id="Layer_1" xmlns="http://www.w3.org/2000/svg" xmlns:xlink="http://www.w3.org/1999/xlink" x="0px" y="0px"
	 width="1599px" height="1280px" viewBox="0 0 1599 1280" enable-background="new 0 0 1599 1280" xml:space="preserve">
<rect fill="#F6492E" width="1599" height="1136"/>
<path id="line_2_" fill="none" stroke="#FFFFFF" stroke-width="5" stroke-miterlimit="10" d="M0.333,0H1408
	c0,0,7.37,54.536-56.381,75.629c-49.718,16.45-181.128-16.262-231.989,26.999C989.136,213.622,1149.628,344.18,920.153,344.18
	c-53.298,0-210.641,0.005-210.641,0.005l0-272c0,0,197.128-16.055,182.129,88.94c-24.768,173.378-452.821-81.513-745.463-71.996
	c-184.491,6-234.178,65.89-271.848,139.493c-36.104,70.544-10.484,160.564,1.386,160.564c2.241,0,7.284,0,7.284,0"/>
</svg>
