<?xml version="1.0" encoding="utf-8"?>
<!-- Generator: Adobe Illustrator 17.0.0, SVG Export Plug-In . SVG Version: 6.00 Build 0)  -->
<!DOCTYPE svg PUBLIC "-//W3C//DTD SVG 1.1 Tiny//EN" "http://www.w3.org/Graphics/SVG/1.1/DTD/svg11-tiny.dtd">
<svg version="1.1" baseProfile="tiny" id="Layer_1" xmlns="http://www.w3.org/2000/svg" xmlns:xlink="http://www.w3.org/1999/xlink"
	 x="0px" y="0px" width="1599px" height="1280px" viewBox="0 0 1599 1280" xml:space="preserve">
<rect fill="#F6492E" width="1599" height="1136"/>
<path id="line_1_" fill="none" stroke="#FFFFFF" stroke-width="5" stroke-miterlimit="10" d="M0.063-0.147c0,0,7.588,0,9.494,0
	c0,0-13.701-73.226-98.125-62.312c-85.62,11.069-137.62,133.069-227.541,212.611c-127.158,112.481-307.898,201.236-415.567,201.236
	c-127.502,0-163.512-107.964-83.058-153.371c96.709-54.581,287.125,153.491,431.118,153.491c54.15,0,139.428-18.084,152.395-100.486
	c15.251-96.92,81.033-133.598,138.59-97.598c25.122,15.713,49.443,72-10.557,117c-43.953,32.965-63.937,53-63.937,97.583
	c0,42.469,39.198,42.375,48.497,42.375c5.133,0,16.441,0,16.441,0"/>
<path id="line_3_" fill="none" stroke="#FFFFFF" stroke-width="5" stroke-miterlimit="10" d="M592,415.185"/>
</svg>
