<?xml version="1.0" encoding="utf-8"?>
<!-- Generator: Adobe Illustrator 17.0.0, SVG Export Plug-In . SVG Version: 6.00 Build 0)  -->
<!DOCTYPE svg PUBLIC "-//W3C//DTD SVG 1.1 Tiny//EN" "http://www.w3.org/Graphics/SVG/1.1/DTD/svg11-tiny.dtd">
<svg version="1.1" baseProfile="tiny" id="Layer_1" xmlns="http://www.w3.org/2000/svg" xmlns:xlink="http://www.w3.org/1999/xlink"
	 x="0px" y="0px" width="1599px" height="1280px" viewBox="0 0 1599 1280" overflow="visible" xml:space="preserve">
<rect fill="#F6492E" width="1599" height="1136"/>
<path id="line_2_" fill="none" stroke="#FFFFFF" stroke-width="5" stroke-miterlimit="10" d="M-0.567,0.476c0,0,7.588,0,9.494,0
	c0,0-13.701-73.226-98.125-62.312c-85.62,11.069-137.62,133.069-227.541,212.611c-127.158,112.481-307.898,201.236-415.567,201.236
	c-127.502,0-166.666-94.761-83.058-153.371c97.697-68.486,287.125,153.491,431.118,153.491c54.15,0,142.252-20.958,152.395-100.486
	c11.097-87.005,69.594-138.002,138.59-97.598c25.569,14.973,49.498,72-30.223,127.588c-57.648,40.197-79.271,51.783-79.271,86.996
	c0,47.417,67.199,46.326,76.497,46.326c3.902,0,12.441,0,12.441,0"/>
</svg>
