<?xml version="1.0" encoding="utf-8"?>
<!-- Generator: Adobe Illustrator 17.0.0, SVG Export Plug-In . SVG Version: 6.00 Build 0)  -->
<!DOCTYPE svg PUBLIC "-//W3C//DTD SVG 1.1 Tiny//EN" "http://www.w3.org/Graphics/SVG/1.1/DTD/svg11-tiny.dtd">
<svg version="1.1" baseProfile="tiny" id="Layer_1" xmlns="http://www.w3.org/2000/svg" xmlns:xlink="http://www.w3.org/1999/xlink"
	 x="0px" y="0px" width="1599px" height="1280px" viewBox="0 0 1599 1280" overflow="visible" xml:space="preserve">
<rect fill="#F6492E" width="1599" height="1136"/>
<path id="line_1_" fill="none" stroke="#FFFFFF" stroke-width="5" stroke-miterlimit="10" d="M0.061-0.125c0,0,7.588,0,9.494,0
	c0,0-13.701-73.226-98.125-62.312c-85.62,11.069-137.62,133.069-227.541,212.611c-127.158,112.481-307.898,201.236-415.567,201.236
	c-127.503,0-166.666-94.761-83.058-153.371c97.697-68.486,267.189,150.503,411.182,150.503s142.796-108.826,262.487-92.072
	c86.877,12.161,103.418,90.161,126.9,90.161c14.977,0,24.977,0,24.977,0v67.724h-12.25"/>
</svg>
