<?xml version="1.0" encoding="utf-8"?>
<!-- Generator: Adobe Illustrator 17.0.0, SVG Export Plug-In . SVG Version: 6.00 Build 0)  -->
<!DOCTYPE svg PUBLIC "-//W3C//DTD SVG 1.1//EN" "http://www.w3.org/Graphics/SVG/1.1/DTD/svg11.dtd">
<svg version="1.1" id="Layer_1" xmlns="http://www.w3.org/2000/svg" xmlns:xlink="http://www.w3.org/1999/xlink" x="0px" y="0px"
	 width="1600px" height="1280px" viewBox="0 0 1600 1280" enable-background="new 0 0 1600 1280" xml:space="preserve">
<polyline fill="#F6492E" points="1,0 1600,0 1600,923 1,923 "/>
<path id="line_1_" fill="none" stroke="#FFFFFF" stroke-width="5" stroke-miterlimit="10" d="M1,0.728c0,0,21.11,0.044,27.494,0.091
	c115.039,0.852,283.45-95.492,336.946-229.735c52.948-132.87-62.496-210.021-137.504-141.014
	C115.089-266.111,165.386-16.931,468.965,4.32c30.381,2.127,186.019-0.94,186.019,66.795c0,109.705,0,105.782,0,181.904
	c0,85.123-48.739,99.837-132.013,99.837c-99.01,0-133.308-55.913-108.011-133.312c18.54-56.724,96.654-112.327,192.8-123.39
	c91.016-10.473,265.972,68.017,334.8,31.966c126.023-66.007,54.458-384.716-60.558-408.041
	c-140.999-28.594-175.355,70.579-146.232,152.193c11.879,33.288,71.756,86.672,157.806,83.435
	c118.389-4.453,147.403-186.2,231.45-184.623c92.474,1.735,71.62,92.039,91.474,154.735c10.82,34.169,40.159,67.64,61.507,67.64
	c26.492,0,20.492,0,20.492,0"/>
</svg>
