<?xml version="1.0" encoding="utf-8"?>
<!-- Generator: Adobe Illustrator 17.0.0, SVG Export Plug-In . SVG Version: 6.00 Build 0)  -->
<!DOCTYPE svg PUBLIC "-//W3C//DTD SVG 1.1//EN" "http://www.w3.org/Graphics/SVG/1.1/DTD/svg11.dtd">
<svg version="1.1" id="Layer_1" xmlns="http://www.w3.org/2000/svg" xmlns:xlink="http://www.w3.org/1999/xlink" x="0px" y="0px"
	 width="800px" height="1280px" viewBox="0 0 800 1280" enable-background="new 0 0 800 1280" xml:space="preserve">
<rect x="-399" y="179" display="none" fill="#F6492E" width="1599" height="923"/>
<path id="line_3_" fill="none" stroke="#FFFFFF" stroke-width="5" stroke-miterlimit="10" d="M0,1.271
	c0,0,18.861,0.044,25.818,0.095c59.896,0.444,450.006,0,450.006,0v248.5c0,0-6.799,0-68,0c-148.266,0-138-157.5,0-157.5
	c110,0,189.628,117.65,302,116c147.621-2.167,193.788-218.705,193.788-285.657c0-190.343-161.788-128.343-161.788-44.343
	c0,52.401,48.777,94.638,123.424,106c132.894,20.228,285.105,16.936,301.563,17c14.744,0.058,94.147,0.132,94.147,0.132"/>
</svg>
