<?xml version="1.0" encoding="utf-8"?>
<!-- Generator: Adobe Illustrator 17.0.0, SVG Export Plug-In . SVG Version: 6.00 Build 0)  -->
<!DOCTYPE svg PUBLIC "-//W3C//DTD SVG 1.1 Tiny//EN" "http://www.w3.org/Graphics/SVG/1.1/DTD/svg11-tiny.dtd">
<svg version="1.1" baseProfile="tiny" id="Layer_1" xmlns="http://www.w3.org/2000/svg" xmlns:xlink="http://www.w3.org/1999/xlink"
	 x="0px" y="0px" width="980.726px" height="1280px" viewBox="0 0 980.726 1280" xml:space="preserve">
<rect fill="#F6492E" width="1599" height="895"/>
<path id="line_3_" fill="none" stroke="#FFFFFF" stroke-width="5" stroke-miterlimit="10" d="M37.2,801.959"/>
<path id="line_2_" fill="none" stroke="#FFFFFF" stroke-width="5" stroke-miterlimit="10" d="M4.107,0H111.95
	c0,0,709.259,0,819.199,0c0,83.872-31.132,129.615-165.592,129.615c-135.274,0,25.689,214.565-203.786,214.565
	c-53.298,0-160.641,0.005-160.641,0.005l0-286.092c0,0,91.606,0,124.106,0c160.334,0,151.334,203.135,5.214,203.135
	c-156.958,0-266.364-162.099-372.654-162.099c-108.195,0-164.462,121.926-164.462,292.34c3.797,0,10.603,0,10.603,0"/>
</svg>
