<?xml version="1.0" encoding="utf-8"?>
<!-- Generator: Adobe Illustrator 17.0.0, SVG Export Plug-In . SVG Version: 6.00 Build 0)  -->
<!DOCTYPE svg PUBLIC "-//W3C//DTD SVG 1.1 Tiny//EN" "http://www.w3.org/Graphics/SVG/1.1/DTD/svg11-tiny.dtd">
<svg version="1.1" baseProfile="tiny" id="Layer_1" xmlns="http://www.w3.org/2000/svg" xmlns:xlink="http://www.w3.org/1999/xlink"
	 x="0px" y="0px" width="800px" height="1280px" viewBox="0 0 800 1280" xml:space="preserve">
<rect fill="#F6492E" width="1024" height="768"/>
<path id="line_5_" fill="none" stroke="#FFFFFF" stroke-width="5" stroke-miterlimit="10" d="M39.125,717.518"/>
<path id="line_3_" fill="none" stroke="#FFFFFF" stroke-width="5" stroke-miterlimit="10" d="M245.215,616"/>
<path id="line_2_" fill="none" stroke="#FFFFFF" stroke-width="5" stroke-miterlimit="10" d="M5.166,0h67.052h580.719
	c0,0-13.087,26.674-49.544,47.023c-33.271,18.572-48.605,13.438-85.34,50.681c-56.949,57.737-3.166,186.293-145.844,186.293
	c-33.138,0-99.88,0.003-99.88,0.003l0-215.105c0,0,14.293-0.134,34.5,0c170.362,1.128,176.608,153.713,54.608,153.713
	c-153,0-128.333-165.791-232.96-165.791C1.336,56.817-5.263,343.374-5.263,343.374h4.529"/>
</svg>
