<?xml version="1.0" encoding="utf-8"?>
<!-- Generator: Adobe Illustrator 17.0.0, SVG Export Plug-In . SVG Version: 6.00 Build 0)  -->
<!DOCTYPE svg PUBLIC "-//W3C//DTD SVG 1.1 Tiny//EN" "http://www.w3.org/Graphics/SVG/1.1/DTD/svg11-tiny.dtd">
<svg version="1.1" baseProfile="tiny" id="Layer_1" xmlns="http://www.w3.org/2000/svg" xmlns:xlink="http://www.w3.org/1999/xlink"
	 x="0px" y="0px" width="280px" height="627.384px" viewBox="0 0 280 627.384" xml:space="preserve">
<rect fill="#F6492E" width="280" height="568"/>
<path id="line_2_" fill="none" stroke="#FFFFFF" stroke-width="2" stroke-miterlimit="10" d="M-0.469,0h4.993c0,0,0,23.597,0,52.073
	c0,63.14,49.421,99.097,111.84,99.097c127.5,0,90.959-116.783,16.382-116.783c-23.636,0-48.267,0-48.267,0v165.951
	c0,0,47.251,76.484,94.946,95.897c54.925,22.355,55.242-58.969,3.128-46.302c-30.68,7.457-95.548,77.421-161.066,70.641
	c-70.622-7.308-41.122-95.308,24.044-56.641c142.483,84.542-78.045,179.859-78.045,182.593c0,8.729,0,44.106,0,44.106h4.045"/>
</svg>
