<?xml version="1.0" encoding="utf-8"?>
<!-- Generator: Adobe Illustrator 17.0.0, SVG Export Plug-In . SVG Version: 6.00 Build 0)  -->
<!DOCTYPE svg PUBLIC "-//W3C//DTD SVG 1.1 Tiny//EN" "http://www.w3.org/Graphics/SVG/1.1/DTD/svg11-tiny.dtd">
<svg version="1.1" baseProfile="tiny" id="Layer_1" xmlns="http://www.w3.org/2000/svg" xmlns:xlink="http://www.w3.org/1999/xlink"
	 x="0px" y="0px" width="800px" height="1280px" viewBox="0 0 800 1280" xml:space="preserve">
<rect fill="#F6492E" width="640" height="1136"/>
<path id="line_3_" fill="none" stroke="#FFFFFF" stroke-width="5" stroke-miterlimit="10" d="M0.871,0v16.81c0,0,0,73.155,0,131.916
	c0,117.428,59.273,204.492,264.763,204.492c208.49,0,211.315-240.987,0-240.987c-48.774,0-99.771,0-99.771,0v389.91
	c0,0,61.965-1.039,119.994,36.679c59.997,38.998,76.496,134.382,160.492,134.382c95.995,0,93.755-95.734,1.635-107.439
	c-64.632-8.213-126.448,96.27-162.749,134.057c-41.74,43.447-155.37,103.876-228.725,64.878
	c-112.632-59.879,2.892-210.494,100.353-97.495C363.853,907.192-54.923,915.788-54.923,921.43c0,18.013,0,111.65,0,111.65"/>
</svg>
