<?xml version="1.0" encoding="utf-8"?>
<!-- Generator: Adobe Illustrator 17.0.0, SVG Export Plug-In . SVG Version: 6.00 Build 0)  -->
<!DOCTYPE svg PUBLIC "-//W3C//DTD SVG 1.1//EN" "http://www.w3.org/Graphics/SVG/1.1/DTD/svg11.dtd">
<svg version="1.1" id="Layer_1" xmlns="http://www.w3.org/2000/svg" xmlns:xlink="http://www.w3.org/1999/xlink" x="0px" y="0px"
	 width="800px" height="1280px" viewBox="0 0 800 1280" enable-background="new 0 0 800 1280" xml:space="preserve">
<rect fill="#F6492E" width="640" height="1136"/>
<path id="line_1_" fill="none" stroke="#FFFFFF" stroke-width="5" stroke-miterlimit="10" d="M3.564,0c0,0,0,8.851,0,16.81
	c0,10.554-41.045,97.981-45.904,198.917c-6.86,142.493,102.049,174.925,199.49,178.491c81.964,3,182.991-31.498,208.49-133.493
	c27.54-110.159-83.347-191.99-187.491-148.493C-18.932,194.547-25.869,433.805,61.921,533.29
	c87.729,99.415,26.014,171.339-9.625,181.911c-66.138,19.62-118.789-31.498-79.638-94.266
	c44.337-71.081,191.99-63.226,229.489-10.729C323.852,780.593-59.136,915.788-59.136,921.43c0,18.013,0,111.65,0,111.65"/>
</svg>
