<?xml version="1.0" encoding="utf-8"?>
<!-- Generator: Adobe Illustrator 14.0.0, SVG Export Plug-In . SVG Version: 6.00 Build 43363)  -->
<!DOCTYPE svg PUBLIC "-//W3C//DTD SVG 1.1//EN" "http://www.w3.org/Graphics/SVG/1.1/DTD/svg11.dtd">
<svg version="1.1" id="Layer_1" xmlns="http://www.w3.org/2000/svg" xmlns:xlink="http://www.w3.org/1999/xlink" x="0px" y="0px"
	 width="800px" height="1280px" viewBox="0 0 800 1280" enable-background="new 0 0 800 1280" xml:space="preserve">
<g id="Layer_1_1_">
	<rect x="-16" y="-15" width="827" height="1310"/>
</g>
<g id="Layer_2">
	<path id="line_1_" fill="none" stroke="#FFFFFF" stroke-width="5" stroke-miterlimit="10" d="M116.745-15c0,0,0,3.103,0,13
		c0,12.82-25.702,19.756-44.745,27C44.486,35.467,18,36.02,18,61.5c0,26,17.5,36.828,44.778,36.828C102.667,98.328,104,51,104,51
		H-16v36c0,0,39.618,9.865,62,36c21.141,24.686,23.541,28,47.023,28c14.977,0,13.697,0,23.697,0v47.724"/>
</g>
</svg>
